<svg xmlns="http://www.w3.org/2000/svg" viewBox="0 0 275.78 116.38"><defs><style>.cls-1,.cls-2{fill:#e2deda;}.cls-1,.cls-3{stroke:#000;stroke-miterlimit:10;}.cls-1{stroke-width:0.25px;}.cls-3{fill:#d745c4;stroke-width:0.15px;}</style></defs><g id="Layer_2" data-name="Layer 2"><g id="Layer_1-2" data-name="Layer 1"><rect class="cls-1" x="35.78" y="24.45" width="204.44" height="66.76"/><path d="M91.65,42.8H89.1V40.26H86.56V42.8H89.1v7.63H86.56V53H84V40.26H81.47V37.71H78.93V35.17H66.21v2.54H61.12v2.55H58.58V42.8H56v5.09H53.49v2.54H51V60.61H48.4v7.63H51v7.63h2.54v2.55h5.09V81h7.63V78.42h7.63V75.87h2.54V60.61H71.3V58.06H91.65v2.55H89.1v2.54H86.56V65.7H84v5.08H81.47v5.09H78.93V83.5H76.38V81H68.75V83.5H53.49V81H48.4V78.42H45.86V75.87H43.31V70.78H40.77V58.06h2.54V50.43h2.55V45.34H48.4V42.8H51V40.26h2.54V37.71H56V35.17h5.09V32.62H78.93v2.55H84v2.54h2.54V35.17h7.63v2.54H91.65Z"/><path d="M127.25,68.24V65.7H104.36v2.54h-2.55v5.09H99.27v2.54H96.73V81h5.08V83.5H86.55V81h2.54V78.42h5.09V73.33h2.55V70.78h2.54V68.24h2.54V63.15h2.55V60.61h2.55V58.06h2.54V53H112V50.43h2.54V47.89h2.55V42.8h2.55V40.26h2.54V37.71h2.54V35.17h2.54V30.08h2.55V60.61h2.54V81h5.09V83.5h-17.8V81h5.08V68.24Zm-2.54-5.09V55.52h-2.54V45.34h-2.54v2.55h-2.55V53h-2.55v2.54H112v2.54h-2.54v5.09Z"/><path d="M175.59,83.5H137.43V81H140V78.42h2.55V75.87h2.54V73.33h2.54V70.78h2.55V68.24h2.54V65.7h2.55V63.15h2.54V60.61h2.54V58.06h2.55V53h2.54V50.43H168V47.89h2.54V45.34H173V42.8h2.55V40.26h2.54V37.71h5.09V35.17H165.41v2.54h-5.09v2.55h-2.54V42.8h-2.54v5.09h-2.55v2.54h-2.54V45.34h2.54V37.71h2.55V32.62h38.15v2.55h-2.54v2.54h-2.54v2.55h-2.54V42.8h-2.55v2.54h-2.55v2.55h-2.54v2.54h-2.54V53H173v2.54H170.5v2.54H168v2.55h-2.55v2.54h-2.54V65.7h-2.55v2.54h-2.54v2.54h-2.54v2.55h-2.55v2.54h-2.54v2.55h-5.09V81h20.35V78.42h5.09V75.87H173V73.33h2.55V70.78h2.54V68.24h2.54v5.09h-2.54v5.09h-2.54Z"/><path d="M190.85,78.42V81H211.2V78.42h5.09V75.87h2.54V73.33h2.54V68.24h2.55V65.7h2.54v5.08h-2.54v5.09h-2.55V81h-2.54V83.5h-40.7V81h5.08V78.42h2.55V75.87h2.54V70.78h2.55V63.15h2.54V55.52h2.54V50.43h2.55V42.8H201V35.17h-5.09V32.62h40.71v5.09h-2.55v7.63h-2.54v5.09H229V37.71h-2.55V35.17H206.11v2.54h2.54V42.8h-2.54v5.09h-2.54v7.63h10.17V53h2.55V50.43h2.54V47.89h2.54v2.54h-2.54v7.63h-2.54V65.7h-2.55v2.54H211.2V65.7h2.54V60.61H211.2V58.06H201v5.09h-2.54v5.09h-2.55v7.63h-2.54v2.55Z"/><polygon class="cls-2" points="233.91 85 230.08 81.24 229.63 81.28 229.61 87.24 230.13 87.1 231.19 86.04 231.72 86.49 231.72 86.92 231.97 87.18 232.31 87.98 232.72 88.73 233.39 88.71 233.62 88.54 233.53 87.88 233.32 87.71 232.96 86.72 232.38 85.72 232.63 85.13 233.77 85.13 233.91 85"/><path d="M231.41,86.24h-.36s-.05,0-.05,0v.31s0,0,0,0h-.34s0,0,0,0,0-.23,0-.35,0,0,0,0H231v-.75s0,0,0,0h.37v.06c0,.23,0,.47,0,.7,0,0,0,0,.05,0h.37V87h.42v.8h.38s.05,0,.05,0c0,.24,0,.48,0,.72v0h.76s0,0,0-.05v-.72s0,0,0,0h-.37V87h-.41v-.81h-.4V85s0,0,0,0h1.2v-.35h.35c.07,0,.06,0,.06.06V85h.48v.06c0,.1,0,.21,0,.31s0,.06,0,0h-1.6c-.06,0-.06,0-.06.07v.67s0,0,0,0H233s.06,0,.06.05c0,.24,0,.47,0,.71v0h.41v.82h.41v.81h-.42v.42h-.81v-.38s0,0,0,0h-.34s0,0,0,0v-.77h-.37s0,0,0,0V87h-.42Z"/><path d="M229.34,80.52h.42v0a2.81,2.81,0,0,1,0,.29s0,0,.05,0h.33s0,0,0,0v.37h-.38s0,0,0,0v.05c0,1.86,0,3.73,0,5.6,0,0,0,0,.06,0h.32s0,0,0,0v.33s0,0,0,0h-.33s-.05,0-.05,0,0,.2,0,.3h-.42Z"/><path d="M231.41,82.57H231v-.38s0,0,0,0h.39Z"/><path d="M231.83,83h.39s0,0,0,0v.37l0,0h-.39V83Z"/><path d="M231.83,83h-.39a0,0,0,0,1,0,0v-.38h.28s.1,0,.12,0,0,.08,0,.12Z"/><path d="M230.8,81.74H231s0,0,0,0v.35a0,0,0,0,1,0,0h-.35s0,0,0,0v-.35s0,0,0,0Z"/><path d="M232.66,83.82h-.38s0,0,0,0v-.34s0,0,0,0h.38Z"/><path d="M233.08,84.24h.41s0,0,0,0,0,.23,0,.34,0,0,0,0h-.34s0,0,0,0Z"/><path d="M230.58,81.33v.4h-.41v-.4Z"/><path d="M233.08,83.82v.41h-.41v-.41Z"/><path d="M230.58,86.64v.41h-.41v-.41Z"/><polygon class="cls-2" points="233.91 85 230.08 81.24 229.63 81.28 229.61 87.24 230.13 87.1 231.19 86.04 231.72 86.49 231.72 86.92 231.97 87.18 232.31 87.98 232.72 88.73 233.39 88.71 233.62 88.54 233.53 87.88 233.32 87.71 232.96 86.72 232.38 85.72 232.63 85.13 233.77 85.13 233.91 85"/><path d="M231.41,86.24h-.36s-.05,0-.05,0v.31s0,0,0,0h-.34s0,0,0,0,0-.23,0-.35,0,0,0,0H231v-.75s0,0,0,0h.37v.06c0,.23,0,.47,0,.7,0,0,0,0,.05,0h.37V87h.42v.8h.38s.05,0,.05,0c0,.24,0,.48,0,.72v0h.76s0,0,0-.05v-.72s0,0,0,0h-.37V87h-.41v-.81h-.4V85s0,0,0,0h1.2v-.35h.35c.07,0,.06,0,.06.06V85h.48v.06c0,.1,0,.21,0,.31s0,.06,0,0h-1.6c-.06,0-.06,0-.06.07v.67s0,0,0,0H233s.06,0,.06.05c0,.24,0,.47,0,.71v0h.41v.82h.41v.81h-.42v.42h-.81v-.38s0,0,0,0h-.34s0,0,0,0v-.77h-.37s0,0,0,0V87h-.42Z"/><path d="M229.34,80.52h.42v0a2.81,2.81,0,0,1,0,.29s0,0,.05,0h.33s0,0,0,0v.37h-.38s0,0,0,0v.05c0,1.86,0,3.73,0,5.6,0,0,0,0,.06,0h.32s0,0,0,0v.33s0,0,0,0h-.33s-.05,0-.05,0,0,.2,0,.3h-.42Z"/><path d="M231.41,82.57H231v-.38s0,0,0,0h.39Z"/><path d="M231.83,83h.39s0,0,0,0v.37l0,0h-.39V83Z"/><path d="M231.83,83h-.39a0,0,0,0,1,0,0v-.38h.28s.1,0,.12,0,0,.08,0,.12Z"/><path d="M230.8,81.74H231s0,0,0,0v.35a0,0,0,0,1,0,0h-.35s0,0,0,0v-.35s0,0,0,0Z"/><path d="M232.66,83.82h-.38s0,0,0,0v-.34s0,0,0,0h.38Z"/><path d="M233.08,84.24h.41s0,0,0,0,0,.23,0,.34,0,0,0,0h-.34s0,0,0,0Z"/><path d="M230.58,81.33v.4h-.41v-.4Z"/><path d="M233.08,83.82v.41h-.41v-.41Z"/><path d="M230.58,86.64v.41h-.41v-.41Z"/><polygon class="cls-2" points="233.91 85 230.08 81.24 229.63 81.28 229.61 87.24 230.13 87.1 231.19 86.04 231.72 86.49 231.72 86.92 231.97 87.18 232.31 87.98 232.72 88.73 233.39 88.71 233.62 88.54 233.53 87.88 233.32 87.71 232.96 86.72 232.38 85.72 232.63 85.13 233.77 85.13 233.91 85"/><path d="M231.41,86.24h-.36s-.05,0-.05,0v.31s0,0,0,0h-.34s0,0,0,0,0-.23,0-.35,0,0,0,0H231v-.75s0,0,0,0h.37v.06c0,.23,0,.47,0,.7,0,0,0,0,.05,0h.37V87h.42v.8h.38s.05,0,.05,0c0,.24,0,.48,0,.72v0h.76s0,0,0-.05v-.72s0,0,0,0h-.37V87h-.41v-.81h-.4V85s0,0,0,0h1.2v-.35h.35c.07,0,.06,0,.06.06V85h.48v.06c0,.1,0,.21,0,.31s0,.06,0,0h-1.6c-.06,0-.06,0-.06.07v.67s0,0,0,0H233s.06,0,.06.05c0,.24,0,.47,0,.71v0h.41v.82h.41v.81h-.42v.42h-.81v-.38s0,0,0,0h-.34s0,0,0,0v-.77h-.37s0,0,0,0V87h-.42Z"/><path d="M229.34,80.52h.42v0a2.81,2.81,0,0,1,0,.29s0,0,.05,0h.33s0,0,0,0v.37h-.38s0,0,0,0v.05c0,1.86,0,3.73,0,5.6,0,0,0,0,.06,0h.32s0,0,0,0v.33s0,0,0,0h-.33s-.05,0-.05,0,0,.2,0,.3h-.42Z"/><path d="M231.41,82.57H231v-.38s0,0,0,0h.39Z"/><path d="M231.83,83h.39s0,0,0,0v.37l0,0h-.39V83Z"/><path d="M231.83,83h-.39a0,0,0,0,1,0,0v-.38h.28s.1,0,.12,0,0,.08,0,.12Z"/><path d="M230.8,81.74H231s0,0,0,0v.35a0,0,0,0,1,0,0h-.35s0,0,0,0v-.35s0,0,0,0Z"/><path d="M232.66,83.82h-.38s0,0,0,0v-.34s0,0,0,0h.38Z"/><path d="M233.08,84.24h.41s0,0,0,0,0,.23,0,.34,0,0,0,0h-.34s0,0,0,0Z"/><path d="M230.58,81.33v.4h-.41v-.4Z"/><path d="M233.08,83.82v.41h-.41v-.41Z"/><path d="M230.58,86.64v.41h-.41v-.41Z"/><polygon class="cls-2" points="233.91 85 230.08 81.24 229.63 81.28 229.61 87.24 230.13 87.1 231.19 86.04 231.72 86.49 231.72 86.92 231.97 87.18 232.31 87.98 232.72 88.73 233.39 88.71 233.62 88.54 233.53 87.88 233.32 87.71 232.96 86.72 232.38 85.72 232.63 85.13 233.77 85.13 233.91 85"/><path d="M231.41,86.24h-.36s-.05,0-.05,0v.31s0,0,0,0h-.34s0,0,0,0,0-.23,0-.35,0,0,0,0H231v-.75s0,0,0,0h.37v.06c0,.23,0,.47,0,.7,0,0,0,0,.05,0h.37V87h.42v.8h.38s.05,0,.05,0c0,.24,0,.48,0,.72v0h.76s0,0,0-.05v-.72s0,0,0,0h-.37V87h-.41v-.81h-.4V85s0,0,0,0h1.2v-.35h.35c.07,0,.06,0,.06.06V85h.48v.06c0,.1,0,.21,0,.31s0,.06,0,0h-1.6c-.06,0-.06,0-.06.07v.67s0,0,0,0H233s.06,0,.06.05c0,.24,0,.47,0,.71v0h.41v.82h.41v.81h-.42v.42h-.81v-.38s0,0,0,0h-.34s0,0,0,0v-.77h-.37s0,0,0,0V87h-.42Z"/><path d="M229.34,80.52h.42v0a2.81,2.81,0,0,1,0,.29s0,0,.05,0h.33s0,0,0,0v.37h-.38s0,0,0,0v.05c0,1.86,0,3.73,0,5.6,0,0,0,0,.06,0h.32s0,0,0,0v.33s0,0,0,0h-.33s-.05,0-.05,0,0,.2,0,.3h-.42Z"/><path d="M231.41,82.57H231v-.38s0,0,0,0h.39Z"/><path d="M231.83,83h.39s0,0,0,0v.37l0,0h-.39V83Z"/><path d="M231.83,83h-.39a0,0,0,0,1,0,0v-.38h.28s.1,0,.12,0,0,.08,0,.12Z"/><path d="M230.8,81.74H231s0,0,0,0v.35a0,0,0,0,1,0,0h-.35s0,0,0,0v-.35s0,0,0,0Z"/><path d="M232.66,83.82h-.38s0,0,0,0v-.34s0,0,0,0h.38Z"/><path d="M233.08,84.24h.41s0,0,0,0,0,.23,0,.34,0,0,0,0h-.34s0,0,0,0Z"/><path d="M230.58,81.33v.4h-.41v-.4Z"/><path d="M233.08,83.82v.41h-.41v-.41Z"/><path d="M230.58,86.64v.41h-.41v-.41Z"/><polygon class="cls-2" points="233.91 85 230.08 81.24 229.63 81.28 229.61 87.24 230.13 87.1 231.19 86.04 231.72 86.49 231.72 86.92 231.97 87.18 232.31 87.98 232.72 88.73 233.39 88.71 233.62 88.54 233.53 87.88 233.32 87.71 232.96 86.72 232.38 85.72 232.63 85.13 233.77 85.13 233.91 85"/><path d="M231.41,86.24h-.36s-.05,0-.05,0v.31s0,0,0,0h-.34s0,0,0,0,0-.23,0-.35,0,0,0,0H231v-.75s0,0,0,0h.37v.06c0,.23,0,.47,0,.7,0,0,0,0,.05,0h.37V87h.42v.8h.38s.05,0,.05,0c0,.24,0,.48,0,.72v0h.76s0,0,0-.05v-.72s0,0,0,0h-.37V87h-.41v-.81h-.4V85s0,0,0,0h1.2v-.35h.35c.07,0,.06,0,.06.06V85h.48v.06c0,.1,0,.21,0,.31s0,.06,0,0h-1.6c-.06,0-.06,0-.06.07v.67s0,0,0,0H233s.06,0,.06.05c0,.24,0,.47,0,.71v0h.41v.82h.41v.81h-.42v.42h-.81v-.38s0,0,0,0h-.34s0,0,0,0v-.77h-.37s0,0,0,0V87h-.42Z"/><path d="M229.34,80.52h.42v0a2.81,2.81,0,0,1,0,.29s0,0,.05,0h.33s0,0,0,0v.37h-.38s0,0,0,0v.05c0,1.86,0,3.73,0,5.6,0,0,0,0,.06,0h.32s0,0,0,0v.33s0,0,0,0h-.33s-.05,0-.05,0,0,.2,0,.3h-.42Z"/><path d="M231.41,82.57H231v-.38s0,0,0,0h.39Z"/><path d="M231.83,83h.39s0,0,0,0v.37l0,0h-.39V83Z"/><path d="M231.83,83h-.39a0,0,0,0,1,0,0v-.38h.28s.1,0,.12,0,0,.08,0,.12Z"/><path d="M230.8,81.74H231s0,0,0,0v.35a0,0,0,0,1,0,0h-.35s0,0,0,0v-.35s0,0,0,0Z"/><path d="M232.66,83.82h-.38s0,0,0,0v-.34s0,0,0,0h.38Z"/><path d="M233.08,84.24h.41s0,0,0,0,0,.23,0,.34,0,0,0,0h-.34s0,0,0,0Z"/><path d="M230.58,81.33v.4h-.41v-.4Z"/><path d="M233.08,83.82v.41h-.41v-.41Z"/><path d="M230.58,86.64v.41h-.41v-.41Z"/><polygon class="cls-2" points="233.91 85 230.08 81.24 229.63 81.28 229.61 87.24 230.13 87.1 231.19 86.04 231.72 86.49 231.72 86.92 231.97 87.18 232.31 87.98 232.72 88.73 233.39 88.71 233.62 88.54 233.53 87.88 233.32 87.71 232.96 86.72 232.38 85.72 232.63 85.13 233.77 85.13 233.91 85"/><path d="M231.41,86.24h-.36s-.05,0-.05,0v.31s0,0,0,0h-.34s0,0,0,0,0-.23,0-.35,0,0,0,0H231v-.75s0,0,0,0h.37v.06c0,.23,0,.47,0,.7,0,0,0,0,.05,0h.37V87h.42v.8h.38s.05,0,.05,0c0,.24,0,.48,0,.72v0h.76s0,0,0-.05v-.72s0,0,0,0h-.37V87h-.41v-.81h-.4V85s0,0,0,0h1.2v-.35h.35c.07,0,.06,0,.06.06V85h.48v.06c0,.1,0,.21,0,.31s0,.06,0,0h-1.6c-.06,0-.06,0-.06.07v.67s0,0,0,0H233s.06,0,.06.05c0,.24,0,.47,0,.71v0h.41v.82h.41v.81h-.42v.42h-.81v-.38s0,0,0,0h-.34s0,0,0,0v-.77h-.37s0,0,0,0V87h-.42Z"/><path d="M229.34,80.52h.42v0a2.81,2.81,0,0,1,0,.29s0,0,.05,0h.33s0,0,0,0v.37h-.38s0,0,0,0v.05c0,1.86,0,3.73,0,5.6,0,0,0,0,.06,0h.32s0,0,0,0v.33s0,0,0,0h-.33s-.05,0-.05,0,0,.2,0,.3h-.42Z"/><path d="M231.41,82.57H231v-.38s0,0,0,0h.39Z"/><path d="M231.83,83h.39s0,0,0,0v.37l0,0h-.39V83Z"/><path d="M231.83,83h-.39a0,0,0,0,1,0,0v-.38h.28s.1,0,.12,0,0,.08,0,.12Z"/><path d="M230.8,81.74H231s0,0,0,0v.35a0,0,0,0,1,0,0h-.35s0,0,0,0v-.35s0,0,0,0Z"/><path d="M232.66,83.82h-.38s0,0,0,0v-.34s0,0,0,0h.38Z"/><path d="M233.08,84.24h.41s0,0,0,0,0,.23,0,.34,0,0,0,0h-.34s0,0,0,0Z"/><path d="M230.58,81.33v.4h-.41v-.4Z"/><path d="M233.08,83.82v.41h-.41v-.41Z"/><path d="M230.58,86.64v.41h-.41v-.41Z"/><polygon class="cls-2" points="233.91 85 230.08 81.24 229.63 81.28 229.61 87.24 230.13 87.1 231.19 86.04 231.72 86.49 231.72 86.92 231.97 87.18 232.31 87.98 232.72 88.73 233.39 88.71 233.62 88.54 233.53 87.88 233.32 87.71 232.96 86.72 232.38 85.72 232.63 85.13 233.77 85.13 233.91 85"/><path d="M231.41,86.24h-.36s-.05,0-.05,0v.31s0,0,0,0h-.34s0,0,0,0,0-.23,0-.35,0,0,0,0H231v-.75s0,0,0,0h.37v.06c0,.23,0,.47,0,.7,0,0,0,0,.05,0h.37V87h.42v.8h.38s.05,0,.05,0c0,.24,0,.48,0,.72v0h.76s0,0,0-.05v-.72s0,0,0,0h-.37V87h-.41v-.81h-.4V85s0,0,0,0h1.2v-.35h.35c.07,0,.06,0,.06.06V85h.48v.06c0,.1,0,.21,0,.31s0,.06,0,0h-1.6c-.06,0-.06,0-.06.07v.67s0,0,0,0H233s.06,0,.06.05c0,.24,0,.47,0,.71v0h.41v.82h.41v.81h-.42v.42h-.81v-.38s0,0,0,0h-.34s0,0,0,0v-.77h-.37s0,0,0,0V87h-.42Z"/><path d="M229.34,80.52h.42v0a2.81,2.81,0,0,1,0,.29s0,0,.05,0h.33s0,0,0,0v.37h-.38s0,0,0,0v.05c0,1.86,0,3.73,0,5.6,0,0,0,0,.06,0h.32s0,0,0,0v.33s0,0,0,0h-.33s-.05,0-.05,0,0,.2,0,.3h-.42Z"/><path d="M231.41,82.57H231v-.38s0,0,0,0h.39Z"/><path d="M231.83,83h.39s0,0,0,0v.37l0,0h-.39V83Z"/><path d="M231.83,83h-.39a0,0,0,0,1,0,0v-.38h.28s.1,0,.12,0,0,.08,0,.12Z"/><path d="M230.8,81.74H231s0,0,0,0v.35a0,0,0,0,1,0,0h-.35s0,0,0,0v-.35s0,0,0,0Z"/><path d="M232.66,83.82h-.38s0,0,0,0v-.34s0,0,0,0h.38Z"/><path d="M233.08,84.24h.41s0,0,0,0,0,.23,0,.34,0,0,0,0h-.34s0,0,0,0Z"/><path d="M230.58,81.33v.4h-.41v-.4Z"/><path d="M233.08,83.82v.41h-.41v-.41Z"/><path d="M230.58,86.64v.41h-.41v-.41Z"/><polygon class="cls-2" points="233.91 85 230.08 81.24 229.63 81.28 229.61 87.24 230.13 87.1 231.19 86.04 231.72 86.49 231.72 86.92 231.97 87.18 232.31 87.98 232.72 88.73 233.39 88.71 233.62 88.54 233.53 87.88 233.32 87.71 232.96 86.72 232.38 85.72 232.63 85.13 233.77 85.13 233.91 85"/><path d="M231.41,86.24h-.36s-.05,0-.05,0v.31s0,0,0,0h-.34s0,0,0,0,0-.23,0-.35,0,0,0,0H231v-.75s0,0,0,0h.37v.06c0,.23,0,.47,0,.7,0,0,0,0,.05,0h.37V87h.42v.8h.38s.05,0,.05,0c0,.24,0,.48,0,.72v0h.76s0,0,0-.05v-.72s0,0,0,0h-.37V87h-.41v-.81h-.4V85s0,0,0,0h1.2v-.35h.35c.07,0,.06,0,.06.06V85h.48v.06c0,.1,0,.21,0,.31s0,.06,0,0h-1.6c-.06,0-.06,0-.06.07v.67s0,0,0,0H233s.06,0,.06.05c0,.24,0,.47,0,.71v0h.41v.82h.41v.81h-.42v.42h-.81v-.38s0,0,0,0h-.34s0,0,0,0v-.77h-.37s0,0,0,0V87h-.42Z"/><path d="M229.34,80.52h.42v0a2.81,2.81,0,0,1,0,.29s0,0,.05,0h.33s0,0,0,0v.37h-.38s0,0,0,0v.05c0,1.86,0,3.73,0,5.6,0,0,0,0,.06,0h.32s0,0,0,0v.33s0,0,0,0h-.33s-.05,0-.05,0,0,.2,0,.3h-.42Z"/><path d="M231.41,82.57H231v-.38s0,0,0,0h.39Z"/><path d="M231.83,83h.39s0,0,0,0v.37l0,0h-.39V83Z"/><path d="M231.83,83h-.39a0,0,0,0,1,0,0v-.38h.28s.1,0,.12,0,0,.08,0,.12Z"/><path d="M230.8,81.74H231s0,0,0,0v.35a0,0,0,0,1,0,0h-.35s0,0,0,0v-.35s0,0,0,0Z"/><path d="M232.66,83.82h-.38s0,0,0,0v-.34s0,0,0,0h.38Z"/><path d="M233.08,84.24h.41s0,0,0,0,0,.23,0,.34,0,0,0,0h-.34s0,0,0,0Z"/><path d="M230.58,81.33v.4h-.41v-.4Z"/><path d="M233.08,83.82v.41h-.41v-.41Z"/><path d="M230.58,86.64v.41h-.41v-.41Z"/><polygon class="cls-2" points="233.91 85 230.08 81.24 229.63 81.28 229.61 87.24 230.13 87.1 231.19 86.04 231.72 86.49 231.72 86.92 231.97 87.18 232.31 87.98 232.72 88.73 233.39 88.71 233.62 88.54 233.53 87.88 233.32 87.71 232.96 86.72 232.38 85.72 232.63 85.13 233.77 85.13 233.91 85"/><path d="M231.41,86.24h-.36s-.05,0-.05,0v.31s0,0,0,0h-.34s0,0,0,0,0-.23,0-.35,0,0,0,0H231v-.75s0,0,0,0h.37v.06c0,.23,0,.47,0,.7,0,0,0,0,.05,0h.37V87h.42v.8h.38s.05,0,.05,0c0,.24,0,.48,0,.72v0h.76s0,0,0-.05v-.72s0,0,0,0h-.37V87h-.41v-.81h-.4V85s0,0,0,0h1.2v-.35h.35c.07,0,.06,0,.06.06V85h.48v.06c0,.1,0,.21,0,.31s0,.06,0,0h-1.6c-.06,0-.06,0-.06.07v.67s0,0,0,0H233s.06,0,.06.05c0,.24,0,.47,0,.71v0h.41v.82h.41v.81h-.42v.42h-.81v-.38s0,0,0,0h-.34s0,0,0,0v-.77h-.37s0,0,0,0V87h-.42Z"/><path d="M229.34,80.52h.42v0a2.81,2.81,0,0,1,0,.29s0,0,.05,0h.33s0,0,0,0v.37h-.38s0,0,0,0v.05c0,1.86,0,3.73,0,5.6,0,0,0,0,.06,0h.32s0,0,0,0v.33s0,0,0,0h-.33s-.05,0-.05,0,0,.2,0,.3h-.42Z"/><path d="M231.41,82.57H231v-.38s0,0,0,0h.39Z"/><path d="M231.83,83h.39s0,0,0,0v.37l0,0h-.39V83Z"/><path d="M231.83,83h-.39a0,0,0,0,1,0,0v-.38h.28s.1,0,.12,0,0,.08,0,.12Z"/><path d="M230.8,81.74H231s0,0,0,0v.35a0,0,0,0,1,0,0h-.35s0,0,0,0v-.35s0,0,0,0Z"/><path d="M232.66,83.82h-.38s0,0,0,0v-.34s0,0,0,0h.38Z"/><path d="M233.08,84.24h.41s0,0,0,0,0,.23,0,.34,0,0,0,0h-.34s0,0,0,0Z"/><path d="M230.58,81.33v.4h-.41v-.4Z"/><path d="M233.08,83.82v.41h-.41v-.41Z"/><path d="M230.58,86.64v.41h-.41v-.41Z"/><polygon class="cls-2" points="233.91 85 230.08 81.24 229.63 81.28 229.61 87.24 230.13 87.1 231.19 86.04 231.72 86.49 231.72 86.92 231.97 87.18 232.31 87.98 232.72 88.73 233.39 88.71 233.62 88.54 233.53 87.88 233.32 87.71 232.96 86.72 232.38 85.72 232.63 85.13 233.77 85.13 233.91 85"/><path d="M231.41,86.24h-.36s-.05,0-.05,0v.31s0,0,0,0h-.34s0,0,0,0,0-.23,0-.35,0,0,0,0H231v-.75s0,0,0,0h.37v.06c0,.23,0,.47,0,.7,0,0,0,0,.05,0h.37V87h.42v.8h.38s.05,0,.05,0c0,.24,0,.48,0,.72v0h.76s0,0,0-.05v-.72s0,0,0,0h-.37V87h-.41v-.81h-.4V85s0,0,0,0h1.2v-.35h.35c.07,0,.06,0,.06.06V85h.48v.06c0,.1,0,.21,0,.31s0,.06,0,0h-1.6c-.06,0-.06,0-.06.07v.67s0,0,0,0H233s.06,0,.06.05c0,.24,0,.47,0,.71v0h.41v.82h.41v.81h-.42v.42h-.81v-.38s0,0,0,0h-.34s0,0,0,0v-.77h-.37s0,0,0,0V87h-.42Z"/><path d="M229.34,80.52h.42v0a2.81,2.81,0,0,1,0,.29s0,0,.05,0h.33s0,0,0,0v.37h-.38s0,0,0,0v.05c0,1.86,0,3.73,0,5.6,0,0,0,0,.06,0h.32s0,0,0,0v.33s0,0,0,0h-.33s-.05,0-.05,0,0,.2,0,.3h-.42Z"/><path d="M231.41,82.57H231v-.38s0,0,0,0h.39Z"/><path d="M231.83,83h.39s0,0,0,0v.37l0,0h-.39V83Z"/><path d="M231.83,83h-.39a0,0,0,0,1,0,0v-.38h.28s.1,0,.12,0,0,.08,0,.12Z"/><path d="M230.8,81.74H231s0,0,0,0v.35a0,0,0,0,1,0,0h-.35s0,0,0,0v-.35s0,0,0,0Z"/><path d="M232.66,83.82h-.38s0,0,0,0v-.34s0,0,0,0h.38Z"/><path d="M233.08,84.24h.41s0,0,0,0,0,.23,0,.34,0,0,0,0h-.34s0,0,0,0Z"/><path d="M230.58,81.33v.4h-.41v-.4Z"/><path d="M233.08,83.82v.41h-.41v-.41Z"/><path d="M230.58,86.64v.41h-.41v-.41Z"/><polygon class="cls-2" points="233.91 85 230.08 81.24 229.63 81.28 229.61 87.24 230.13 87.1 231.19 86.04 231.72 86.49 231.72 86.92 231.97 87.18 232.31 87.98 232.72 88.73 233.39 88.71 233.62 88.54 233.53 87.88 233.32 87.71 232.96 86.72 232.38 85.72 232.63 85.13 233.77 85.13 233.91 85"/><path d="M231.41,86.24h-.36s-.05,0-.05,0v.31s0,0,0,0h-.34s0,0,0,0,0-.23,0-.35,0,0,0,0H231v-.75s0,0,0,0h.37v.06c0,.23,0,.47,0,.7,0,0,0,0,.05,0h.37V87h.42v.8h.38s.05,0,.05,0c0,.24,0,.48,0,.72v0h.76s0,0,0-.05v-.72s0,0,0,0h-.37V87h-.41v-.81h-.4V85s0,0,0,0h1.2v-.35h.35c.07,0,.06,0,.06.06V85h.48v.06c0,.1,0,.21,0,.31s0,.06,0,0h-1.6c-.06,0-.06,0-.06.07v.67s0,0,0,0H233s.06,0,.06.05c0,.24,0,.47,0,.71v0h.41v.82h.41v.81h-.42v.42h-.81v-.38s0,0,0,0h-.34s0,0,0,0v-.77h-.37s0,0,0,0V87h-.42Z"/><path d="M229.34,80.52h.42v0a2.81,2.81,0,0,1,0,.29s0,0,.05,0h.33s0,0,0,0v.37h-.38s0,0,0,0v.05c0,1.86,0,3.73,0,5.6,0,0,0,0,.06,0h.32s0,0,0,0v.33s0,0,0,0h-.33s-.05,0-.05,0,0,.2,0,.3h-.42Z"/><path d="M231.41,82.57H231v-.38s0,0,0,0h.39Z"/><path d="M231.83,83h.39s0,0,0,0v.37l0,0h-.39V83Z"/><path d="M231.83,83h-.39a0,0,0,0,1,0,0v-.38h.28s.1,0,.12,0,0,.08,0,.12Z"/><path d="M230.8,81.74H231s0,0,0,0v.35a0,0,0,0,1,0,0h-.35s0,0,0,0v-.35s0,0,0,0Z"/><path d="M232.66,83.82h-.38s0,0,0,0v-.34s0,0,0,0h.38Z"/><path d="M233.08,84.24h.41s0,0,0,0,0,.23,0,.34,0,0,0,0h-.34s0,0,0,0Z"/><path d="M230.58,81.33v.4h-.41v-.4Z"/><path d="M233.08,83.82v.41h-.41v-.41Z"/><path d="M230.58,86.64v.41h-.41v-.41Z"/><polygon class="cls-2" points="233.91 85 230.08 81.24 229.63 81.28 229.61 87.24 230.13 87.1 231.19 86.04 231.72 86.49 231.72 86.92 231.97 87.18 232.31 87.98 232.72 88.73 233.39 88.71 233.62 88.54 233.53 87.88 233.32 87.71 232.96 86.72 232.38 85.72 232.63 85.13 233.77 85.13 233.91 85"/><path d="M231.41,86.24h-.36s-.05,0-.05,0v.31s0,0,0,0h-.34s0,0,0,0,0-.23,0-.35,0,0,0,0H231v-.75s0,0,0,0h.37v.06c0,.23,0,.47,0,.7,0,0,0,0,.05,0h.37V87h.42v.8h.38s.05,0,.05,0c0,.24,0,.48,0,.72v0h.76s0,0,0-.05v-.72s0,0,0,0h-.37V87h-.41v-.81h-.4V85s0,0,0,0h1.2v-.35h.35c.07,0,.06,0,.06.06V85h.48v.06c0,.1,0,.21,0,.31s0,.06,0,0h-1.6c-.06,0-.06,0-.06.07v.67s0,0,0,0H233s.06,0,.06.05c0,.24,0,.47,0,.71v0h.41v.82h.41v.81h-.42v.42h-.81v-.38s0,0,0,0h-.34s0,0,0,0v-.77h-.37s0,0,0,0V87h-.42Z"/><path d="M229.34,80.52h.42v0a2.81,2.81,0,0,1,0,.29s0,0,.05,0h.33s0,0,0,0v.37h-.38s0,0,0,0v.05c0,1.86,0,3.73,0,5.6,0,0,0,0,.06,0h.32s0,0,0,0v.33s0,0,0,0h-.33s-.05,0-.05,0,0,.2,0,.3h-.42Z"/><path d="M231.41,82.57H231v-.38s0,0,0,0h.39Z"/><path d="M231.83,83h.39s0,0,0,0v.37l0,0h-.39V83Z"/><path d="M231.83,83h-.39a0,0,0,0,1,0,0v-.38h.28s.1,0,.12,0,0,.08,0,.12Z"/><path d="M230.8,81.74H231s0,0,0,0v.35a0,0,0,0,1,0,0h-.35s0,0,0,0v-.35s0,0,0,0Z"/><path d="M232.66,83.82h-.38s0,0,0,0v-.34s0,0,0,0h.38Z"/><path d="M233.08,84.24h.41s0,0,0,0,0,.23,0,.34,0,0,0,0h-.34s0,0,0,0Z"/><path d="M230.58,81.33v.4h-.41v-.4Z"/><path d="M233.08,83.82v.41h-.41v-.41Z"/><path d="M230.58,86.64v.41h-.41v-.41Z"/><polygon class="cls-2" points="233.91 85 230.08 81.24 229.63 81.28 229.61 87.24 230.13 87.1 231.19 86.04 231.72 86.49 231.72 86.92 231.97 87.18 232.31 87.98 232.72 88.73 233.39 88.71 233.62 88.54 233.53 87.88 233.32 87.71 232.96 86.72 232.38 85.72 232.63 85.13 233.77 85.13 233.91 85"/><path d="M231.41,86.24h-.36s-.05,0-.05,0v.31s0,0,0,0h-.34s0,0,0,0,0-.23,0-.35,0,0,0,0H231v-.75s0,0,0,0h.37v.06c0,.23,0,.47,0,.7,0,0,0,0,.05,0h.37V87h.42v.8h.38s.05,0,.05,0c0,.24,0,.48,0,.72v0h.76s0,0,0-.05v-.72s0,0,0,0h-.37V87h-.41v-.81h-.4V85s0,0,0,0h1.2v-.35h.35c.07,0,.06,0,.06.06V85h.48v.06c0,.1,0,.21,0,.31s0,.06,0,0h-1.6c-.06,0-.06,0-.06.07v.67s0,0,0,0H233s.06,0,.06.05c0,.24,0,.47,0,.71v0h.41v.82h.41v.81h-.42v.42h-.81v-.38s0,0,0,0h-.34s0,0,0,0v-.77h-.37s0,0,0,0V87h-.42Z"/><path d="M229.34,80.52h.42v0a2.81,2.81,0,0,1,0,.29s0,0,.05,0h.33s0,0,0,0v.37h-.38s0,0,0,0v.05c0,1.86,0,3.73,0,5.6,0,0,0,0,.06,0h.32s0,0,0,0v.33s0,0,0,0h-.33s-.05,0-.05,0,0,.2,0,.3h-.42Z"/><path d="M231.41,82.57H231v-.38s0,0,0,0h.39Z"/><path d="M231.83,83h.39s0,0,0,0v.37l0,0h-.39V83Z"/><path d="M231.83,83h-.39a0,0,0,0,1,0,0v-.38h.28s.1,0,.12,0,0,.08,0,.12Z"/><path d="M230.8,81.74H231s0,0,0,0v.35a0,0,0,0,1,0,0h-.35s0,0,0,0v-.35s0,0,0,0Z"/><path d="M232.66,83.82h-.38s0,0,0,0v-.34s0,0,0,0h.38Z"/><path d="M233.08,84.24h.41s0,0,0,0,0,.23,0,.34,0,0,0,0h-.34s0,0,0,0Z"/><path d="M230.58,81.33v.4h-.41v-.4Z"/><path d="M233.08,83.82v.41h-.41v-.41Z"/><path d="M230.58,86.64v.41h-.41v-.41Z"/><polygon class="cls-2" points="233.91 85 230.08 81.24 229.63 81.28 229.61 87.24 230.13 87.1 231.19 86.04 231.72 86.49 231.72 86.92 231.97 87.18 232.31 87.98 232.72 88.73 233.39 88.71 233.62 88.54 233.53 87.88 233.32 87.71 232.96 86.72 232.38 85.72 232.63 85.13 233.77 85.13 233.91 85"/><path d="M231.41,86.24h-.36s-.05,0-.05,0v.31s0,0,0,0h-.34s0,0,0,0,0-.23,0-.35,0,0,0,0H231v-.75s0,0,0,0h.37v.06c0,.23,0,.47,0,.7,0,0,0,0,.05,0h.37V87h.42v.8h.38s.05,0,.05,0c0,.24,0,.48,0,.72v0h.76s0,0,0-.05v-.72s0,0,0,0h-.37V87h-.41v-.81h-.4V85s0,0,0,0h1.2v-.35h.35c.07,0,.06,0,.06.06V85h.48v.06c0,.1,0,.21,0,.31s0,.06,0,0h-1.6c-.06,0-.06,0-.06.07v.67s0,0,0,0H233s.06,0,.06.05c0,.24,0,.47,0,.71v0h.41v.82h.41v.81h-.42v.42h-.81v-.38s0,0,0,0h-.34s0,0,0,0v-.77h-.37s0,0,0,0V87h-.42Z"/><path d="M229.34,80.52h.42v0a2.81,2.81,0,0,1,0,.29s0,0,.05,0h.33s0,0,0,0v.37h-.38s0,0,0,0v.05c0,1.86,0,3.73,0,5.6,0,0,0,0,.06,0h.32s0,0,0,0v.33s0,0,0,0h-.33s-.05,0-.05,0,0,.2,0,.3h-.42Z"/><path d="M231.41,82.57H231v-.38s0,0,0,0h.39Z"/><path d="M231.83,83h.39s0,0,0,0v.37l0,0h-.39V83Z"/><path d="M231.83,83h-.39a0,0,0,0,1,0,0v-.38h.28s.1,0,.12,0,0,.08,0,.12Z"/><path d="M230.8,81.74H231s0,0,0,0v.35a0,0,0,0,1,0,0h-.35s0,0,0,0v-.35s0,0,0,0Z"/><path d="M232.66,83.82h-.38s0,0,0,0v-.34s0,0,0,0h.38Z"/><path d="M233.08,84.24h.41s0,0,0,0,0,.23,0,.34,0,0,0,0h-.34s0,0,0,0Z"/><path d="M230.58,81.33v.4h-.41v-.4Z"/><path d="M233.08,83.82v.41h-.41v-.41Z"/><path d="M230.58,86.64v.41h-.41v-.41Z"/><polygon class="cls-2" points="233.91 85 230.08 81.24 229.63 81.28 229.61 87.24 230.13 87.1 231.19 86.04 231.72 86.49 231.72 86.92 231.97 87.18 232.31 87.98 232.72 88.73 233.39 88.71 233.62 88.54 233.53 87.88 233.32 87.71 232.96 86.72 232.38 85.72 232.63 85.13 233.77 85.13 233.91 85"/><path d="M231.41,86.24h-.36s-.05,0-.05,0v.31s0,0,0,0h-.34s0,0,0,0,0-.23,0-.35,0,0,0,0H231v-.75s0,0,0,0h.37v.06c0,.23,0,.47,0,.7,0,0,0,0,.05,0h.37V87h.42v.8h.38s.05,0,.05,0c0,.24,0,.48,0,.72v0h.76s0,0,0-.05v-.72s0,0,0,0h-.37V87h-.41v-.81h-.4V85s0,0,0,0h1.2v-.35h.35c.07,0,.06,0,.06.06V85h.48v.06c0,.1,0,.21,0,.31s0,.06,0,0h-1.6c-.06,0-.06,0-.06.07v.67s0,0,0,0H233s.06,0,.06.05c0,.24,0,.47,0,.71v0h.41v.82h.41v.81h-.42v.42h-.81v-.38s0,0,0,0h-.34s0,0,0,0v-.77h-.37s0,0,0,0V87h-.42Z"/><path d="M229.34,80.52h.42v0a2.81,2.81,0,0,1,0,.29s0,0,.05,0h.33s0,0,0,0v.37h-.38s0,0,0,0v.05c0,1.86,0,3.73,0,5.6,0,0,0,0,.06,0h.32s0,0,0,0v.33s0,0,0,0h-.33s-.05,0-.05,0,0,.2,0,.3h-.42Z"/><path d="M231.41,82.57H231v-.38s0,0,0,0h.39Z"/><path d="M231.83,83h.39s0,0,0,0v.37l0,0h-.39V83Z"/><path d="M231.83,83h-.39a0,0,0,0,1,0,0v-.38h.28s.1,0,.12,0,0,.08,0,.12Z"/><path d="M230.8,81.74H231s0,0,0,0v.35a0,0,0,0,1,0,0h-.35s0,0,0,0v-.35s0,0,0,0Z"/><path d="M232.66,83.82h-.38s0,0,0,0v-.34s0,0,0,0h.38Z"/><path d="M233.08,84.24h.41s0,0,0,0,0,.23,0,.34,0,0,0,0h-.34s0,0,0,0Z"/><path d="M230.58,81.33v.4h-.41v-.4Z"/><path d="M233.08,83.82v.41h-.41v-.41Z"/><path d="M230.58,86.64v.41h-.41v-.41Z"/><polygon class="cls-2" points="233.91 85 230.08 81.24 229.63 81.28 229.61 87.24 230.13 87.1 231.19 86.04 231.72 86.49 231.72 86.92 231.97 87.18 232.31 87.98 232.72 88.73 233.39 88.71 233.62 88.54 233.53 87.88 233.32 87.71 232.96 86.72 232.38 85.72 232.63 85.13 233.77 85.13 233.91 85"/><path d="M231.41,86.24h-.36s-.05,0-.05,0v.31s0,0,0,0h-.34s0,0,0,0,0-.23,0-.35,0,0,0,0H231v-.75s0,0,0,0h.37v.06c0,.23,0,.47,0,.7,0,0,0,0,.05,0h.37V87h.42v.8h.38s.05,0,.05,0c0,.24,0,.48,0,.72v0h.76s0,0,0-.05v-.72s0,0,0,0h-.37V87h-.41v-.81h-.4V85s0,0,0,0h1.2v-.35h.35c.07,0,.06,0,.06.06V85h.48v.06c0,.1,0,.21,0,.31s0,.06,0,0h-1.6c-.06,0-.06,0-.06.07v.67s0,0,0,0H233s.06,0,.06.05c0,.24,0,.47,0,.71v0h.41v.82h.41v.81h-.42v.42h-.81v-.38s0,0,0,0h-.34s0,0,0,0v-.77h-.37s0,0,0,0V87h-.42Z"/><path d="M229.34,80.52h.42v0a2.81,2.81,0,0,1,0,.29s0,0,.05,0h.33s0,0,0,0v.37h-.38s0,0,0,0v.05c0,1.86,0,3.73,0,5.6,0,0,0,0,.06,0h.32s0,0,0,0v.33s0,0,0,0h-.33s-.05,0-.05,0,0,.2,0,.3h-.42Z"/><path d="M231.41,82.57H231v-.38s0,0,0,0h.39Z"/><path d="M231.83,83h.39s0,0,0,0v.37l0,0h-.39V83Z"/><path d="M231.83,83h-.39a0,0,0,0,1,0,0v-.38h.28s.1,0,.12,0,0,.08,0,.12Z"/><path d="M230.8,81.74H231s0,0,0,0v.35a0,0,0,0,1,0,0h-.35s0,0,0,0v-.35s0,0,0,0Z"/><path d="M232.66,83.82h-.38s0,0,0,0v-.34s0,0,0,0h.38Z"/><path d="M233.08,84.24h.41s0,0,0,0,0,.23,0,.34,0,0,0,0h-.34s0,0,0,0Z"/><path d="M230.58,81.33v.4h-.41v-.4Z"/><path d="M233.08,83.82v.41h-.41v-.41Z"/><path d="M230.58,86.64v.41h-.41v-.41Z"/><polygon class="cls-2" points="233.91 85 230.08 81.24 229.63 81.28 229.61 87.24 230.13 87.1 231.19 86.04 231.72 86.49 231.72 86.92 231.97 87.18 232.31 87.98 232.72 88.73 233.39 88.71 233.62 88.54 233.53 87.88 233.32 87.71 232.96 86.72 232.38 85.72 232.63 85.13 233.77 85.13 233.91 85"/><path d="M231.41,86.24h-.36s-.05,0-.05,0v.31s0,0,0,0h-.34s0,0,0,0,0-.23,0-.35,0,0,0,0H231v-.75s0,0,0,0h.37v.06c0,.23,0,.47,0,.7,0,0,0,0,.05,0h.37V87h.42v.8h.38s.05,0,.05,0c0,.24,0,.48,0,.72v0h.76s0,0,0-.05v-.72s0,0,0,0h-.37V87h-.41v-.81h-.4V85s0,0,0,0h1.2v-.35h.35c.07,0,.06,0,.06.06V85h.48v.06c0,.1,0,.21,0,.31s0,.06,0,0h-1.6c-.06,0-.06,0-.06.07v.67s0,0,0,0H233s.06,0,.06.05c0,.24,0,.47,0,.71v0h.41v.82h.41v.81h-.42v.42h-.81v-.38s0,0,0,0h-.34s0,0,0,0v-.77h-.37s0,0,0,0V87h-.42Z"/><path d="M229.34,80.52h.42v0a2.81,2.81,0,0,1,0,.29s0,0,.05,0h.33s0,0,0,0v.37h-.38s0,0,0,0v.05c0,1.86,0,3.73,0,5.6,0,0,0,0,.06,0h.32s0,0,0,0v.33s0,0,0,0h-.33s-.05,0-.05,0,0,.2,0,.3h-.42Z"/><path d="M231.41,82.57H231v-.38s0,0,0,0h.39Z"/><path d="M231.83,83h.39s0,0,0,0v.37l0,0h-.39V83Z"/><path d="M231.83,83h-.39a0,0,0,0,1,0,0v-.38h.28s.1,0,.12,0,0,.08,0,.12Z"/><path d="M230.8,81.74H231s0,0,0,0v.35a0,0,0,0,1,0,0h-.35s0,0,0,0v-.35s0,0,0,0Z"/><path d="M232.66,83.82h-.38s0,0,0,0v-.34s0,0,0,0h.38Z"/><path d="M233.08,84.24h.41s0,0,0,0,0,.23,0,.34,0,0,0,0h-.34s0,0,0,0Z"/><path d="M230.58,81.33v.4h-.41v-.4Z"/><path d="M233.08,83.82v.41h-.41v-.41Z"/><path d="M230.58,86.64v.41h-.41v-.41Z"/><polygon class="cls-2" points="233.91 85 230.08 81.24 229.63 81.28 229.61 87.24 230.13 87.1 231.19 86.04 231.72 86.49 231.72 86.92 231.97 87.18 232.31 87.98 232.72 88.73 233.39 88.71 233.62 88.54 233.53 87.88 233.32 87.71 232.96 86.72 232.38 85.72 232.63 85.13 233.77 85.13 233.91 85"/><path d="M231.41,86.24h-.36s-.05,0-.05,0v.31s0,0,0,0h-.34s0,0,0,0,0-.23,0-.35,0,0,0,0H231v-.75s0,0,0,0h.37v.06c0,.23,0,.47,0,.7,0,0,0,0,.05,0h.37V87h.42v.8h.38s.05,0,.05,0c0,.24,0,.48,0,.72v0h.76s0,0,0-.05v-.72s0,0,0,0h-.37V87h-.41v-.81h-.4V85s0,0,0,0h1.2v-.35h.35c.07,0,.06,0,.06.06V85h.48v.06c0,.1,0,.21,0,.31s0,.06,0,0h-1.6c-.06,0-.06,0-.06.07v.67s0,0,0,0H233s.06,0,.06.05c0,.24,0,.47,0,.71v0h.41v.82h.41v.81h-.42v.42h-.81v-.38s0,0,0,0h-.34s0,0,0,0v-.77h-.37s0,0,0,0V87h-.42Z"/><path d="M229.34,80.52h.42v0a2.81,2.81,0,0,1,0,.29s0,0,.05,0h.33s0,0,0,0v.37h-.38s0,0,0,0v.05c0,1.86,0,3.73,0,5.6,0,0,0,0,.06,0h.32s0,0,0,0v.33s0,0,0,0h-.33s-.05,0-.05,0,0,.2,0,.3h-.42Z"/><path d="M231.41,82.57H231v-.38s0,0,0,0h.39Z"/><path d="M231.83,83h.39s0,0,0,0v.37l0,0h-.39V83Z"/><path d="M231.83,83h-.39a0,0,0,0,1,0,0v-.38h.28s.1,0,.12,0,0,.08,0,.12Z"/><path d="M230.8,81.74H231s0,0,0,0v.35a0,0,0,0,1,0,0h-.35s0,0,0,0v-.35s0,0,0,0Z"/><path d="M232.66,83.82h-.38s0,0,0,0v-.34s0,0,0,0h.38Z"/><path d="M233.08,84.24h.41s0,0,0,0,0,.23,0,.34,0,0,0,0h-.34s0,0,0,0Z"/><path d="M230.58,81.33v.4h-.41v-.4Z"/><path d="M233.08,83.82v.41h-.41v-.41Z"/><path d="M230.58,86.64v.41h-.41v-.41Z"/><polygon class="cls-2" points="233.91 85 230.08 81.24 229.63 81.28 229.61 87.24 230.13 87.1 231.19 86.04 231.72 86.49 231.72 86.92 231.97 87.18 232.31 87.98 232.72 88.73 233.39 88.71 233.62 88.54 233.53 87.88 233.32 87.71 232.96 86.72 232.38 85.72 232.63 85.13 233.77 85.13 233.91 85"/><path d="M231.41,86.24h-.36s-.05,0-.05,0v.31s0,0,0,0h-.34s0,0,0,0,0-.23,0-.35,0,0,0,0H231v-.75s0,0,0,0h.37v.06c0,.23,0,.47,0,.7,0,0,0,0,.05,0h.37V87h.42v.8h.38s.05,0,.05,0c0,.24,0,.48,0,.72v0h.76s0,0,0-.05v-.72s0,0,0,0h-.37V87h-.41v-.81h-.4V85s0,0,0,0h1.2v-.35h.35c.07,0,.06,0,.06.06V85h.48v.06c0,.1,0,.21,0,.31s0,.06,0,0h-1.6c-.06,0-.06,0-.06.07v.67s0,0,0,0H233s.06,0,.06.05c0,.24,0,.47,0,.71v0h.41v.82h.41v.81h-.42v.42h-.81v-.38s0,0,0,0h-.34s0,0,0,0v-.77h-.37s0,0,0,0V87h-.42Z"/><path d="M229.34,80.52h.42v0a2.81,2.81,0,0,1,0,.29s0,0,.05,0h.33s0,0,0,0v.37h-.38s0,0,0,0v.05c0,1.86,0,3.73,0,5.6,0,0,0,0,.06,0h.32s0,0,0,0v.33s0,0,0,0h-.33s-.05,0-.05,0,0,.2,0,.3h-.42Z"/><path d="M231.41,82.57H231v-.38s0,0,0,0h.39Z"/><path d="M231.83,83h.39s0,0,0,0v.37l0,0h-.39V83Z"/><path d="M231.83,83h-.39a0,0,0,0,1,0,0v-.38h.28s.1,0,.12,0,0,.08,0,.12Z"/><path d="M230.8,81.74H231s0,0,0,0v.35a0,0,0,0,1,0,0h-.35s0,0,0,0v-.35s0,0,0,0Z"/><path d="M232.66,83.82h-.38s0,0,0,0v-.34s0,0,0,0h.38Z"/><path d="M233.08,84.24h.41s0,0,0,0,0,.23,0,.34,0,0,0,0h-.34s0,0,0,0Z"/><path d="M230.58,81.33v.4h-.41v-.4Z"/><path d="M233.08,83.82v.41h-.41v-.41Z"/><path d="M230.58,86.64v.41h-.41v-.41Z"/><polygon class="cls-2" points="233.91 85 230.08 81.24 229.63 81.28 229.61 87.24 230.13 87.1 231.19 86.04 231.72 86.49 231.72 86.92 231.97 87.18 232.31 87.98 232.72 88.73 233.39 88.71 233.62 88.54 233.53 87.88 233.32 87.71 232.96 86.72 232.38 85.72 232.63 85.13 233.77 85.13 233.91 85"/><path d="M231.41,86.24h-.36s-.05,0-.05,0v.31s0,0,0,0h-.34s0,0,0,0,0-.23,0-.35,0,0,0,0H231v-.75s0,0,0,0h.37v.06c0,.23,0,.47,0,.7,0,0,0,0,.05,0h.37V87h.42v.8h.38s.05,0,.05,0c0,.24,0,.48,0,.72v0h.76s0,0,0-.05v-.72s0,0,0,0h-.37V87h-.41v-.81h-.4V85s0,0,0,0h1.2v-.35h.35c.07,0,.06,0,.06.06V85h.48v.06c0,.1,0,.21,0,.31s0,.06,0,0h-1.6c-.06,0-.06,0-.06.07v.67s0,0,0,0H233s.06,0,.06.05c0,.24,0,.47,0,.71v0h.41v.82h.41v.81h-.42v.42h-.81v-.38s0,0,0,0h-.34s0,0,0,0v-.77h-.37s0,0,0,0V87h-.42Z"/><path d="M229.34,80.52h.42v0a2.81,2.81,0,0,1,0,.29s0,0,.05,0h.33s0,0,0,0v.37h-.38s0,0,0,0v.05c0,1.86,0,3.73,0,5.6,0,0,0,0,.06,0h.32s0,0,0,0v.33s0,0,0,0h-.33s-.05,0-.05,0,0,.2,0,.3h-.42Z"/><path d="M231.41,82.57H231v-.38s0,0,0,0h.39Z"/><path d="M231.83,83h.39s0,0,0,0v.37l0,0h-.39V83Z"/><path d="M231.83,83h-.39a0,0,0,0,1,0,0v-.38h.28s.1,0,.12,0,0,.08,0,.12Z"/><path d="M230.8,81.74H231s0,0,0,0v.35a0,0,0,0,1,0,0h-.35s0,0,0,0v-.35s0,0,0,0Z"/><path d="M232.66,83.82h-.38s0,0,0,0v-.34s0,0,0,0h.38Z"/><path d="M233.08,84.24h.41s0,0,0,0,0,.23,0,.34,0,0,0,0h-.34s0,0,0,0Z"/><path d="M230.58,81.33v.4h-.41v-.4Z"/><path d="M233.08,83.82v.41h-.41v-.41Z"/><path d="M230.58,86.64v.41h-.41v-.41Z"/><polygon class="cls-2" points="233.91 85 230.08 81.24 229.63 81.28 229.61 87.24 230.13 87.1 231.19 86.04 231.72 86.49 231.72 86.92 231.97 87.18 232.31 87.98 232.72 88.73 233.39 88.71 233.62 88.54 233.53 87.88 233.32 87.71 232.96 86.72 232.38 85.72 232.63 85.13 233.77 85.13 233.91 85"/><path d="M231.41,86.24h-.36s-.05,0-.05,0v.31s0,0,0,0h-.34s0,0,0,0,0-.23,0-.35,0,0,0,0H231v-.75s0,0,0,0h.37v.06c0,.23,0,.47,0,.7,0,0,0,0,.05,0h.37V87h.42v.8h.38s.05,0,.05,0c0,.24,0,.48,0,.72v0h.76s0,0,0-.05v-.72s0,0,0,0h-.37V87h-.41v-.81h-.4V85s0,0,0,0h1.2v-.35h.35c.07,0,.06,0,.06.06V85h.48v.06c0,.1,0,.21,0,.31s0,.06,0,0h-1.6c-.06,0-.06,0-.06.07v.67s0,0,0,0H233s.06,0,.06.05c0,.24,0,.47,0,.71v0h.41v.82h.41v.81h-.42v.42h-.81v-.38s0,0,0,0h-.34s0,0,0,0v-.77h-.37s0,0,0,0V87h-.42Z"/><path d="M229.34,80.52h.42v0a2.81,2.81,0,0,1,0,.29s0,0,.05,0h.33s0,0,0,0v.37h-.38s0,0,0,0v.05c0,1.86,0,3.73,0,5.6,0,0,0,0,.06,0h.32s0,0,0,0v.33s0,0,0,0h-.33s-.05,0-.05,0,0,.2,0,.3h-.42Z"/><path d="M231.41,82.57H231v-.38s0,0,0,0h.39Z"/><path d="M231.83,83h.39s0,0,0,0v.37l0,0h-.39V83Z"/><path d="M231.83,83h-.39a0,0,0,0,1,0,0v-.38h.28s.1,0,.12,0,0,.08,0,.12Z"/><path d="M230.8,81.74H231s0,0,0,0v.35a0,0,0,0,1,0,0h-.35s0,0,0,0v-.35s0,0,0,0Z"/><path d="M232.66,83.82h-.38s0,0,0,0v-.34s0,0,0,0h.38Z"/><path d="M233.08,84.24h.41s0,0,0,0,0,.23,0,.34,0,0,0,0h-.34s0,0,0,0Z"/><path d="M230.58,81.33v.4h-.41v-.4Z"/><path d="M233.08,83.82v.41h-.41v-.41Z"/><path d="M230.58,86.64v.41h-.41v-.41Z"/><polygon class="cls-2" points="233.91 85 230.08 81.24 229.63 81.28 229.61 87.24 230.13 87.1 231.19 86.04 231.72 86.49 231.72 86.92 231.97 87.18 232.31 87.98 232.72 88.73 233.39 88.71 233.62 88.54 233.53 87.88 233.32 87.71 232.96 86.72 232.38 85.72 232.63 85.13 233.77 85.13 233.91 85"/><path d="M231.41,86.24h-.36s-.05,0-.05,0v.31s0,0,0,0h-.34s0,0,0,0,0-.23,0-.35,0,0,0,0H231v-.75s0,0,0,0h.37v.06c0,.23,0,.47,0,.7,0,0,0,0,.05,0h.37V87h.42v.8h.38s.05,0,.05,0c0,.24,0,.48,0,.72v0h.76s0,0,0-.05v-.72s0,0,0,0h-.37V87h-.41v-.81h-.4V85s0,0,0,0h1.2v-.35h.35c.07,0,.06,0,.06.06V85h.48v.06c0,.1,0,.21,0,.31s0,.06,0,0h-1.6c-.06,0-.06,0-.06.07v.67s0,0,0,0H233s.06,0,.06.05c0,.24,0,.47,0,.71v0h.41v.82h.41v.81h-.42v.42h-.81v-.38s0,0,0,0h-.34s0,0,0,0v-.77h-.37s0,0,0,0V87h-.42Z"/><path d="M229.34,80.52h.42v0a2.81,2.81,0,0,1,0,.29s0,0,.05,0h.33s0,0,0,0v.37h-.38s0,0,0,0v.05c0,1.86,0,3.73,0,5.6,0,0,0,0,.06,0h.32s0,0,0,0v.33s0,0,0,0h-.33s-.05,0-.05,0,0,.2,0,.3h-.42Z"/><path d="M231.41,82.57H231v-.38s0,0,0,0h.39Z"/><path d="M231.83,83h.39s0,0,0,0v.37l0,0h-.39V83Z"/><path d="M231.83,83h-.39a0,0,0,0,1,0,0v-.38h.28s.1,0,.12,0,0,.08,0,.12Z"/><path d="M230.8,81.74H231s0,0,0,0v.35a0,0,0,0,1,0,0h-.35s0,0,0,0v-.35s0,0,0,0Z"/><path d="M232.66,83.82h-.38s0,0,0,0v-.34s0,0,0,0h.38Z"/><path d="M233.08,84.24h.41s0,0,0,0,0,.23,0,.34,0,0,0,0h-.34s0,0,0,0Z"/><path d="M230.58,81.33v.4h-.41v-.4Z"/><path d="M233.08,83.82v.41h-.41v-.41Z"/><path d="M230.58,86.64v.41h-.41v-.41Z"/><polygon class="cls-2" points="233.91 85 230.08 81.24 229.63 81.28 229.61 87.24 230.13 87.1 231.19 86.04 231.72 86.49 231.72 86.92 231.97 87.18 232.31 87.98 232.72 88.73 233.39 88.71 233.62 88.54 233.53 87.88 233.32 87.71 232.96 86.72 232.38 85.72 232.63 85.13 233.77 85.13 233.91 85"/><path d="M231.41,86.24h-.36s-.05,0-.05,0v.31s0,0,0,0h-.34s0,0,0,0,0-.23,0-.35,0,0,0,0H231v-.75s0,0,0,0h.37v.06c0,.23,0,.47,0,.7,0,0,0,0,.05,0h.37V87h.42v.8h.38s.05,0,.05,0c0,.24,0,.48,0,.72v0h.76s0,0,0-.05v-.72s0,0,0,0h-.37V87h-.41v-.81h-.4V85s0,0,0,0h1.2v-.35h.35c.07,0,.06,0,.06.06V85h.48v.06c0,.1,0,.21,0,.31s0,.06,0,0h-1.6c-.06,0-.06,0-.06.07v.67s0,0,0,0H233s.06,0,.06.05c0,.24,0,.47,0,.71v0h.41v.82h.41v.81h-.42v.42h-.81v-.38s0,0,0,0h-.34s0,0,0,0v-.77h-.37s0,0,0,0V87h-.42Z"/><path d="M229.34,80.52h.42v0a2.81,2.81,0,0,1,0,.29s0,0,.05,0h.33s0,0,0,0v.37h-.38s0,0,0,0v.05c0,1.86,0,3.73,0,5.6,0,0,0,0,.06,0h.32s0,0,0,0v.33s0,0,0,0h-.33s-.05,0-.05,0,0,.2,0,.3h-.42Z"/><path d="M231.41,82.57H231v-.38s0,0,0,0h.39Z"/><path d="M231.83,83h.39s0,0,0,0v.37l0,0h-.39V83Z"/><path d="M231.83,83h-.39a0,0,0,0,1,0,0v-.38h.28s.1,0,.12,0,0,.08,0,.12Z"/><path d="M230.8,81.74H231s0,0,0,0v.35a0,0,0,0,1,0,0h-.35s0,0,0,0v-.35s0,0,0,0Z"/><path d="M232.66,83.82h-.38s0,0,0,0v-.34s0,0,0,0h.38Z"/><path d="M233.08,84.24h.41s0,0,0,0,0,.23,0,.34,0,0,0,0h-.34s0,0,0,0Z"/><path d="M230.58,81.33v.4h-.41v-.4Z"/><path d="M233.08,83.82v.41h-.41v-.41Z"/><path d="M230.58,86.64v.41h-.41v-.41Z"/><polygon class="cls-2" points="233.91 85 230.08 81.24 229.63 81.28 229.61 87.24 230.13 87.1 231.19 86.04 231.72 86.49 231.72 86.92 231.97 87.18 232.31 87.98 232.72 88.73 233.39 88.71 233.62 88.54 233.53 87.88 233.32 87.71 232.96 86.72 232.38 85.72 232.63 85.13 233.77 85.13 233.91 85"/><path d="M231.41,86.24h-.36s-.05,0-.05,0v.31s0,0,0,0h-.34s0,0,0,0,0-.23,0-.35,0,0,0,0H231v-.75s0,0,0,0h.37v.06c0,.23,0,.47,0,.7,0,0,0,0,.05,0h.37V87h.42v.8h.38s.05,0,.05,0c0,.24,0,.48,0,.72v0h.76s0,0,0-.05v-.72s0,0,0,0h-.37V87h-.41v-.81h-.4V85s0,0,0,0h1.2v-.35h.35c.07,0,.06,0,.06.06V85h.48v.06c0,.1,0,.21,0,.31s0,.06,0,0h-1.6c-.06,0-.06,0-.06.07v.67s0,0,0,0H233s.06,0,.06.05c0,.24,0,.47,0,.71v0h.41v.82h.41v.81h-.42v.42h-.81v-.38s0,0,0,0h-.34s0,0,0,0v-.77h-.37s0,0,0,0V87h-.42Z"/><path d="M229.34,80.52h.42v0a2.81,2.81,0,0,1,0,.29s0,0,.05,0h.33s0,0,0,0v.37h-.38s0,0,0,0v.05c0,1.86,0,3.73,0,5.6,0,0,0,0,.06,0h.32s0,0,0,0v.33s0,0,0,0h-.33s-.05,0-.05,0,0,.2,0,.3h-.42Z"/><path d="M231.41,82.57H231v-.38s0,0,0,0h.39Z"/><path d="M231.83,83h.39s0,0,0,0v.37l0,0h-.39V83Z"/><path d="M231.83,83h-.39a0,0,0,0,1,0,0v-.38h.28s.1,0,.12,0,0,.08,0,.12Z"/><path d="M230.8,81.74H231s0,0,0,0v.35a0,0,0,0,1,0,0h-.35s0,0,0,0v-.35s0,0,0,0Z"/><path d="M232.66,83.82h-.38s0,0,0,0v-.34s0,0,0,0h.38Z"/><path d="M233.08,84.24h.41s0,0,0,0,0,.23,0,.34,0,0,0,0h-.34s0,0,0,0Z"/><path d="M230.58,81.33v.4h-.41v-.4Z"/><path d="M233.08,83.82v.41h-.41v-.41Z"/><path d="M230.58,86.64v.41h-.41v-.41Z"/><polygon class="cls-2" points="233.91 85 230.08 81.24 229.63 81.28 229.61 87.24 230.13 87.1 231.19 86.04 231.72 86.49 231.72 86.92 231.97 87.18 232.31 87.98 232.72 88.73 233.39 88.71 233.62 88.54 233.53 87.88 233.32 87.71 232.96 86.72 232.38 85.72 232.63 85.13 233.77 85.13 233.91 85"/><path d="M231.41,86.24h-.36s-.05,0-.05,0v.31s0,0,0,0h-.34s0,0,0,0,0-.23,0-.35,0,0,0,0H231v-.75s0,0,0,0h.37v.06c0,.23,0,.47,0,.7,0,0,0,0,.05,0h.37V87h.42v.8h.38s.05,0,.05,0c0,.24,0,.48,0,.72v0h.76s0,0,0-.05v-.72s0,0,0,0h-.37V87h-.41v-.81h-.4V85s0,0,0,0h1.2v-.35h.35c.07,0,.06,0,.06.06V85h.48v.06c0,.1,0,.21,0,.31s0,.06,0,0h-1.6c-.06,0-.06,0-.06.07v.67s0,0,0,0H233s.06,0,.06.05c0,.24,0,.47,0,.71v0h.41v.82h.41v.81h-.42v.42h-.81v-.38s0,0,0,0h-.34s0,0,0,0v-.77h-.37s0,0,0,0V87h-.42Z"/><path d="M229.34,80.52h.42v0a2.81,2.81,0,0,1,0,.29s0,0,.05,0h.33s0,0,0,0v.37h-.38s0,0,0,0v.05c0,1.86,0,3.73,0,5.6,0,0,0,0,.06,0h.32s0,0,0,0v.33s0,0,0,0h-.33s-.05,0-.05,0,0,.2,0,.3h-.42Z"/><path d="M231.41,82.57H231v-.38s0,0,0,0h.39Z"/><path d="M231.83,83h.39s0,0,0,0v.37l0,0h-.39V83Z"/><path d="M231.83,83h-.39a0,0,0,0,1,0,0v-.38h.28s.1,0,.12,0,0,.08,0,.12Z"/><path d="M230.8,81.74H231s0,0,0,0v.35a0,0,0,0,1,0,0h-.35s0,0,0,0v-.35s0,0,0,0Z"/><path d="M232.66,83.82h-.38s0,0,0,0v-.34s0,0,0,0h.38Z"/><path d="M233.08,84.24h.41s0,0,0,0,0,.23,0,.34,0,0,0,0h-.34s0,0,0,0Z"/><path d="M230.58,81.33v.4h-.41v-.4Z"/><path d="M233.08,83.82v.41h-.41v-.41Z"/><path d="M230.58,86.64v.41h-.41v-.41Z"/><polygon class="cls-2" points="233.91 85 230.08 81.24 229.63 81.28 229.61 87.24 230.13 87.1 231.19 86.04 231.72 86.49 231.72 86.92 231.97 87.18 232.31 87.98 232.72 88.73 233.39 88.71 233.62 88.54 233.53 87.88 233.32 87.71 232.96 86.72 232.38 85.72 232.63 85.13 233.77 85.13 233.91 85"/><path d="M231.41,86.24h-.36s-.05,0-.05,0v.31s0,0,0,0h-.34s0,0,0,0,0-.23,0-.35,0,0,0,0H231v-.75s0,0,0,0h.37v.06c0,.23,0,.47,0,.7,0,0,0,0,.05,0h.37V87h.42v.8h.38s.05,0,.05,0c0,.24,0,.48,0,.72v0h.76s0,0,0-.05v-.72s0,0,0,0h-.37V87h-.41v-.81h-.4V85s0,0,0,0h1.2v-.35h.35c.07,0,.06,0,.06.06V85h.48v.06c0,.1,0,.21,0,.31s0,.06,0,0h-1.6c-.06,0-.06,0-.06.07v.67s0,0,0,0H233s.06,0,.06.05c0,.24,0,.47,0,.71v0h.41v.82h.41v.81h-.42v.42h-.81v-.38s0,0,0,0h-.34s0,0,0,0v-.77h-.37s0,0,0,0V87h-.42Z"/><path d="M229.34,80.52h.42v0a2.81,2.81,0,0,1,0,.29s0,0,.05,0h.33s0,0,0,0v.37h-.38s0,0,0,0v.05c0,1.86,0,3.73,0,5.6,0,0,0,0,.06,0h.32s0,0,0,0v.33s0,0,0,0h-.33s-.05,0-.05,0,0,.2,0,.3h-.42Z"/><path d="M231.41,82.57H231v-.38s0,0,0,0h.39Z"/><path d="M231.83,83h.39s0,0,0,0v.37l0,0h-.39V83Z"/><path d="M231.83,83h-.39a0,0,0,0,1,0,0v-.38h.28s.1,0,.12,0,0,.08,0,.12Z"/><path d="M230.8,81.74H231s0,0,0,0v.35a0,0,0,0,1,0,0h-.35s0,0,0,0v-.35s0,0,0,0Z"/><path d="M232.66,83.82h-.38s0,0,0,0v-.34s0,0,0,0h.38Z"/><path d="M233.08,84.24h.41s0,0,0,0,0,.23,0,.34,0,0,0,0h-.34s0,0,0,0Z"/><path d="M230.58,81.33v.4h-.41v-.4Z"/><path d="M233.08,83.82v.41h-.41v-.41Z"/><path d="M230.58,86.64v.41h-.41v-.41Z"/><polygon class="cls-2" points="233.91 85 230.08 81.24 229.63 81.28 229.61 87.24 230.13 87.1 231.19 86.04 231.72 86.49 231.72 86.92 231.97 87.18 232.31 87.98 232.72 88.73 233.39 88.71 233.62 88.54 233.53 87.88 233.32 87.71 232.96 86.72 232.38 85.72 232.63 85.13 233.77 85.13 233.91 85"/><path d="M231.41,86.24h-.36s-.05,0-.05,0v.31s0,0,0,0h-.34s0,0,0,0,0-.23,0-.35,0,0,0,0H231v-.75s0,0,0,0h.37v.06c0,.23,0,.47,0,.7,0,0,0,0,.05,0h.37V87h.42v.8h.38s.05,0,.05,0c0,.24,0,.48,0,.72v0h.76s0,0,0-.05v-.72s0,0,0,0h-.37V87h-.41v-.81h-.4V85s0,0,0,0h1.2v-.35h.35c.07,0,.06,0,.06.06V85h.48v.06c0,.1,0,.21,0,.31s0,.06,0,0h-1.6c-.06,0-.06,0-.06.07v.67s0,0,0,0H233s.06,0,.06.05c0,.24,0,.47,0,.71v0h.41v.82h.41v.81h-.42v.42h-.81v-.38s0,0,0,0h-.34s0,0,0,0v-.77h-.37s0,0,0,0V87h-.42Z"/><path d="M229.34,80.52h.42v0a2.81,2.81,0,0,1,0,.29s0,0,.05,0h.33s0,0,0,0v.37h-.38s0,0,0,0v.05c0,1.86,0,3.73,0,5.6,0,0,0,0,.06,0h.32s0,0,0,0v.33s0,0,0,0h-.33s-.05,0-.05,0,0,.2,0,.3h-.42Z"/><path d="M231.41,82.57H231v-.38s0,0,0,0h.39Z"/><path d="M231.83,83h.39s0,0,0,0v.37l0,0h-.39V83Z"/><path d="M231.83,83h-.39a0,0,0,0,1,0,0v-.38h.28s.1,0,.12,0,0,.08,0,.12Z"/><path d="M230.8,81.74H231s0,0,0,0v.35a0,0,0,0,1,0,0h-.35s0,0,0,0v-.35s0,0,0,0Z"/><path d="M232.66,83.82h-.38s0,0,0,0v-.34s0,0,0,0h.38Z"/><path d="M233.08,84.24h.41s0,0,0,0,0,.23,0,.34,0,0,0,0h-.34s0,0,0,0Z"/><path d="M230.58,81.33v.4h-.41v-.4Z"/><path d="M233.08,83.82v.41h-.41v-.41Z"/><path d="M230.58,86.64v.41h-.41v-.41Z"/><polygon class="cls-2" points="233.91 85 230.08 81.24 229.63 81.28 229.61 87.24 230.13 87.1 231.19 86.04 231.72 86.49 231.72 86.92 231.97 87.18 232.31 87.98 232.72 88.73 233.39 88.71 233.62 88.54 233.53 87.88 233.32 87.71 232.96 86.72 232.38 85.72 232.63 85.13 233.77 85.13 233.91 85"/><path d="M231.41,86.24h-.36s-.05,0-.05,0v.31s0,0,0,0h-.34s0,0,0,0,0-.23,0-.35,0,0,0,0H231v-.75s0,0,0,0h.37v.06c0,.23,0,.47,0,.7,0,0,0,0,.05,0h.37V87h.42v.8h.38s.05,0,.05,0c0,.24,0,.48,0,.72v0h.76s0,0,0-.05v-.72s0,0,0,0h-.37V87h-.41v-.81h-.4V85s0,0,0,0h1.2v-.35h.35c.07,0,.06,0,.06.06V85h.48v.06c0,.1,0,.21,0,.31s0,.06,0,0h-1.6c-.06,0-.06,0-.06.07v.67s0,0,0,0H233s.06,0,.06.05c0,.24,0,.47,0,.71v0h.41v.82h.41v.81h-.42v.42h-.81v-.38s0,0,0,0h-.34s0,0,0,0v-.77h-.37s0,0,0,0V87h-.42Z"/><path d="M229.34,80.52h.42v0a2.81,2.81,0,0,1,0,.29s0,0,.05,0h.33s0,0,0,0v.37h-.38s0,0,0,0v.05c0,1.86,0,3.73,0,5.6,0,0,0,0,.06,0h.32s0,0,0,0v.33s0,0,0,0h-.33s-.05,0-.05,0,0,.2,0,.3h-.42Z"/><path d="M231.41,82.57H231v-.38s0,0,0,0h.39Z"/><path d="M231.83,83h.39s0,0,0,0v.37l0,0h-.39V83Z"/><path d="M231.83,83h-.39a0,0,0,0,1,0,0v-.38h.28s.1,0,.12,0,0,.08,0,.12Z"/><path d="M230.8,81.74H231s0,0,0,0v.35a0,0,0,0,1,0,0h-.35s0,0,0,0v-.35s0,0,0,0Z"/><path d="M232.66,83.82h-.38s0,0,0,0v-.34s0,0,0,0h.38Z"/><path d="M233.08,84.24h.41s0,0,0,0,0,.23,0,.34,0,0,0,0h-.34s0,0,0,0Z"/><path d="M230.58,81.33v.4h-.41v-.4Z"/><path d="M233.08,83.82v.41h-.41v-.41Z"/><path d="M230.58,86.64v.41h-.41v-.41Z"/><polygon class="cls-2" points="233.91 85 230.08 81.24 229.63 81.28 229.61 87.24 230.13 87.1 231.19 86.04 231.72 86.49 231.72 86.92 231.97 87.18 232.31 87.98 232.72 88.73 233.39 88.71 233.62 88.54 233.53 87.88 233.32 87.71 232.96 86.72 232.38 85.72 232.63 85.13 233.77 85.13 233.91 85"/><path d="M231.41,86.24h-.36s-.05,0-.05,0v.31s0,0,0,0h-.34s0,0,0,0,0-.23,0-.35,0,0,0,0H231v-.75s0,0,0,0h.37v.06c0,.23,0,.47,0,.7,0,0,0,0,.05,0h.37V87h.42v.8h.38s.05,0,.05,0c0,.24,0,.48,0,.72v0h.76s0,0,0-.05v-.72s0,0,0,0h-.37V87h-.41v-.81h-.4V85s0,0,0,0h1.2v-.35h.35c.07,0,.06,0,.06.06V85h.48v.06c0,.1,0,.21,0,.31s0,.06,0,0h-1.6c-.06,0-.06,0-.06.07v.67s0,0,0,0H233s.06,0,.06.05c0,.24,0,.47,0,.71v0h.41v.82h.41v.81h-.42v.42h-.81v-.38s0,0,0,0h-.34s0,0,0,0v-.77h-.37s0,0,0,0V87h-.42Z"/><path d="M229.34,80.52h.42v0a2.81,2.81,0,0,1,0,.29s0,0,.05,0h.33s0,0,0,0v.37h-.38s0,0,0,0v.05c0,1.86,0,3.73,0,5.6,0,0,0,0,.06,0h.32s0,0,0,0v.33s0,0,0,0h-.33s-.05,0-.05,0,0,.2,0,.3h-.42Z"/><path d="M231.41,82.57H231v-.38s0,0,0,0h.39Z"/><path d="M231.83,83h.39s0,0,0,0v.37l0,0h-.39V83Z"/><path d="M231.83,83h-.39a0,0,0,0,1,0,0v-.38h.28s.1,0,.12,0,0,.08,0,.12Z"/><path d="M230.8,81.74H231s0,0,0,0v.35a0,0,0,0,1,0,0h-.35s0,0,0,0v-.35s0,0,0,0Z"/><path d="M232.66,83.82h-.38s0,0,0,0v-.34s0,0,0,0h.38Z"/><path d="M233.08,84.24h.41s0,0,0,0,0,.23,0,.34,0,0,0,0h-.34s0,0,0,0Z"/><path d="M230.58,81.33v.4h-.41v-.4Z"/><path d="M233.08,83.82v.41h-.41v-.41Z"/><path d="M230.58,86.64v.41h-.41v-.41Z"/><polygon class="cls-2" points="233.91 85 230.08 81.24 229.63 81.28 229.61 87.24 230.13 87.1 231.19 86.04 231.72 86.49 231.72 86.92 231.97 87.18 232.31 87.98 232.72 88.73 233.39 88.71 233.62 88.54 233.53 87.88 233.32 87.71 232.96 86.72 232.38 85.72 232.63 85.13 233.77 85.13 233.91 85"/><path d="M231.41,86.24h-.36s-.05,0-.05,0v.31s0,0,0,0h-.34s0,0,0,0,0-.23,0-.35,0,0,0,0H231v-.75s0,0,0,0h.37v.06c0,.23,0,.47,0,.7,0,0,0,0,.05,0h.37V87h.42v.8h.38s.05,0,.05,0c0,.24,0,.48,0,.72v0h.76s0,0,0-.05v-.72s0,0,0,0h-.37V87h-.41v-.81h-.4V85s0,0,0,0h1.2v-.35h.35c.07,0,.06,0,.06.06V85h.48v.06c0,.1,0,.21,0,.31s0,.06,0,0h-1.6c-.06,0-.06,0-.06.07v.67s0,0,0,0H233s.06,0,.06.05c0,.24,0,.47,0,.71v0h.41v.82h.41v.81h-.42v.42h-.81v-.38s0,0,0,0h-.34s0,0,0,0v-.77h-.37s0,0,0,0V87h-.42Z"/><path d="M229.34,80.52h.42v0a2.81,2.81,0,0,1,0,.29s0,0,.05,0h.33s0,0,0,0v.37h-.38s0,0,0,0v.05c0,1.86,0,3.73,0,5.6,0,0,0,0,.06,0h.32s0,0,0,0v.33s0,0,0,0h-.33s-.05,0-.05,0,0,.2,0,.3h-.42Z"/><path d="M231.41,82.57H231v-.38s0,0,0,0h.39Z"/><path d="M231.83,83h.39s0,0,0,0v.37l0,0h-.39V83Z"/><path d="M231.83,83h-.39a0,0,0,0,1,0,0v-.38h.28s.1,0,.12,0,0,.08,0,.12Z"/><path d="M230.8,81.74H231s0,0,0,0v.35a0,0,0,0,1,0,0h-.35s0,0,0,0v-.35s0,0,0,0Z"/><path d="M232.66,83.82h-.38s0,0,0,0v-.34s0,0,0,0h.38Z"/><path d="M233.08,84.24h.41s0,0,0,0,0,.23,0,.34,0,0,0,0h-.34s0,0,0,0Z"/><path d="M230.58,81.33v.4h-.41v-.4Z"/><path d="M233.08,83.82v.41h-.41v-.41Z"/><path d="M230.58,86.64v.41h-.41v-.41Z"/><polygon class="cls-2" points="233.91 85 230.08 81.24 229.63 81.28 229.61 87.24 230.13 87.1 231.19 86.04 231.72 86.49 231.72 86.92 231.97 87.18 232.31 87.98 232.72 88.73 233.39 88.71 233.62 88.54 233.53 87.88 233.32 87.71 232.96 86.72 232.38 85.72 232.63 85.13 233.77 85.13 233.91 85"/><path d="M231.41,86.24h-.36s-.05,0-.05,0v.31s0,0,0,0h-.34s0,0,0,0,0-.23,0-.35,0,0,0,0H231v-.75s0,0,0,0h.37v.06c0,.23,0,.47,0,.7,0,0,0,0,.05,0h.37V87h.42v.8h.38s.05,0,.05,0c0,.24,0,.48,0,.72v0h.76s0,0,0-.05v-.72s0,0,0,0h-.37V87h-.41v-.81h-.4V85s0,0,0,0h1.2v-.35h.35c.07,0,.06,0,.06.06V85h.48v.06c0,.1,0,.21,0,.31s0,.06,0,0h-1.6c-.06,0-.06,0-.06.07v.67s0,0,0,0H233s.06,0,.06.05c0,.24,0,.47,0,.71v0h.41v.82h.41v.81h-.42v.42h-.81v-.38s0,0,0,0h-.34s0,0,0,0v-.77h-.37s0,0,0,0V87h-.42Z"/><path d="M229.34,80.52h.42v0a2.81,2.81,0,0,1,0,.29s0,0,.05,0h.33s0,0,0,0v.37h-.38s0,0,0,0v.05c0,1.86,0,3.73,0,5.6,0,0,0,0,.06,0h.32s0,0,0,0v.33s0,0,0,0h-.33s-.05,0-.05,0,0,.2,0,.3h-.42Z"/><path d="M231.41,82.57H231v-.38s0,0,0,0h.39Z"/><path d="M231.83,83h.39s0,0,0,0v.37l0,0h-.39V83Z"/><path d="M231.83,83h-.39a0,0,0,0,1,0,0v-.38h.28s.1,0,.12,0,0,.08,0,.12Z"/><path d="M230.8,81.74H231s0,0,0,0v.35a0,0,0,0,1,0,0h-.35s0,0,0,0v-.35s0,0,0,0Z"/><path d="M232.66,83.82h-.38s0,0,0,0v-.34s0,0,0,0h.38Z"/><path d="M233.08,84.24h.41s0,0,0,0,0,.23,0,.34,0,0,0,0h-.34s0,0,0,0Z"/><path d="M230.58,81.33v.4h-.41v-.4Z"/><path d="M233.08,83.82v.41h-.41v-.41Z"/><path d="M230.58,86.64v.41h-.41v-.41Z"/><polygon class="cls-2" points="233.91 85 230.08 81.24 229.63 81.28 229.61 87.24 230.13 87.1 231.19 86.04 231.72 86.49 231.72 86.92 231.97 87.18 232.31 87.98 232.72 88.73 233.39 88.71 233.62 88.54 233.53 87.88 233.32 87.71 232.96 86.72 232.38 85.72 232.63 85.13 233.77 85.13 233.91 85"/><path d="M231.41,86.24h-.36s-.05,0-.05,0v.31s0,0,0,0h-.34s0,0,0,0,0-.23,0-.35,0,0,0,0H231v-.75s0,0,0,0h.37v.06c0,.23,0,.47,0,.7,0,0,0,0,.05,0h.37V87h.42v.8h.38s.05,0,.05,0c0,.24,0,.48,0,.72v0h.76s0,0,0-.05v-.72s0,0,0,0h-.37V87h-.41v-.81h-.4V85s0,0,0,0h1.2v-.35h.35c.07,0,.06,0,.06.06V85h.48v.06c0,.1,0,.21,0,.31s0,.06,0,0h-1.6c-.06,0-.06,0-.06.07v.67s0,0,0,0H233s.06,0,.06.05c0,.24,0,.47,0,.71v0h.41v.82h.41v.81h-.42v.42h-.81v-.38s0,0,0,0h-.34s0,0,0,0v-.77h-.37s0,0,0,0V87h-.42Z"/><path d="M229.34,80.52h.42v0a2.81,2.81,0,0,1,0,.29s0,0,.05,0h.33s0,0,0,0v.37h-.38s0,0,0,0v.05c0,1.86,0,3.73,0,5.6,0,0,0,0,.06,0h.32s0,0,0,0v.33s0,0,0,0h-.33s-.05,0-.05,0,0,.2,0,.3h-.42Z"/><path d="M231.41,82.57H231v-.38s0,0,0,0h.39Z"/><path d="M231.83,83h.39s0,0,0,0v.37l0,0h-.39V83Z"/><path d="M231.83,83h-.39a0,0,0,0,1,0,0v-.38h.28s.1,0,.12,0,0,.08,0,.12Z"/><path d="M230.8,81.74H231s0,0,0,0v.35a0,0,0,0,1,0,0h-.35s0,0,0,0v-.35s0,0,0,0Z"/><path d="M232.66,83.82h-.38s0,0,0,0v-.34s0,0,0,0h.38Z"/><path d="M233.08,84.24h.41s0,0,0,0,0,.23,0,.34,0,0,0,0h-.34s0,0,0,0Z"/><path d="M230.58,81.33v.4h-.41v-.4Z"/><path d="M233.08,83.82v.41h-.41v-.41Z"/><path d="M230.58,86.64v.41h-.41v-.41Z"/><polygon class="cls-2" points="233.91 85 230.08 81.24 229.63 81.28 229.61 87.24 230.13 87.1 231.19 86.04 231.72 86.49 231.72 86.92 231.97 87.18 232.31 87.98 232.72 88.73 233.39 88.71 233.62 88.54 233.53 87.88 233.32 87.71 232.96 86.72 232.38 85.72 232.63 85.13 233.77 85.13 233.91 85"/><path d="M231.41,86.24h-.36s-.05,0-.05,0v.31s0,0,0,0h-.34s0,0,0,0,0-.23,0-.35,0,0,0,0H231v-.75s0,0,0,0h.37v.06c0,.23,0,.47,0,.7,0,0,0,0,.05,0h.37V87h.42v.8h.38s.05,0,.05,0c0,.24,0,.48,0,.72v0h.76s0,0,0-.05v-.72s0,0,0,0h-.37V87h-.41v-.81h-.4V85s0,0,0,0h1.2v-.35h.35c.07,0,.06,0,.06.06V85h.48v.06c0,.1,0,.21,0,.31s0,.06,0,0h-1.6c-.06,0-.06,0-.06.07v.67s0,0,0,0H233s.06,0,.06.05c0,.24,0,.47,0,.71v0h.41v.82h.41v.81h-.42v.42h-.81v-.38s0,0,0,0h-.34s0,0,0,0v-.77h-.37s0,0,0,0V87h-.42Z"/><path d="M229.34,80.52h.42v0a2.81,2.81,0,0,1,0,.29s0,0,.05,0h.33s0,0,0,0v.37h-.38s0,0,0,0v.05c0,1.86,0,3.73,0,5.6,0,0,0,0,.06,0h.32s0,0,0,0v.33s0,0,0,0h-.33s-.05,0-.05,0,0,.2,0,.3h-.42Z"/><path d="M231.41,82.57H231v-.38s0,0,0,0h.39Z"/><path d="M231.83,83h.39s0,0,0,0v.37l0,0h-.39V83Z"/><path d="M231.83,83h-.39a0,0,0,0,1,0,0v-.38h.28s.1,0,.12,0,0,.08,0,.12Z"/><path d="M230.8,81.74H231s0,0,0,0v.35a0,0,0,0,1,0,0h-.35s0,0,0,0v-.35s0,0,0,0Z"/><path d="M232.66,83.82h-.38s0,0,0,0v-.34s0,0,0,0h.38Z"/><path d="M233.08,84.24h.41s0,0,0,0,0,.23,0,.34,0,0,0,0h-.34s0,0,0,0Z"/><path d="M230.58,81.33v.4h-.41v-.4Z"/><path d="M233.08,83.82v.41h-.41v-.41Z"/><path d="M230.58,86.64v.41h-.41v-.41Z"/><polygon class="cls-2" points="233.91 85 230.08 81.24 229.63 81.28 229.61 87.24 230.13 87.1 231.19 86.04 231.72 86.49 231.72 86.92 231.97 87.18 232.31 87.98 232.72 88.73 233.39 88.71 233.62 88.54 233.53 87.88 233.32 87.71 232.96 86.72 232.38 85.72 232.63 85.13 233.77 85.13 233.91 85"/><path d="M231.41,86.24h-.36s-.05,0-.05,0v.31s0,0,0,0h-.34s0,0,0,0,0-.23,0-.35,0,0,0,0H231v-.75s0,0,0,0h.37v.06c0,.23,0,.47,0,.7,0,0,0,0,.05,0h.37V87h.42v.8h.38s.05,0,.05,0c0,.24,0,.48,0,.72v0h.76s0,0,0-.05v-.72s0,0,0,0h-.37V87h-.41v-.81h-.4V85s0,0,0,0h1.2v-.35h.35c.07,0,.06,0,.06.06V85h.48v.06c0,.1,0,.21,0,.31s0,.06,0,0h-1.6c-.06,0-.06,0-.06.07v.67s0,0,0,0H233s.06,0,.06.05c0,.24,0,.47,0,.71v0h.41v.82h.41v.81h-.42v.42h-.81v-.38s0,0,0,0h-.34s0,0,0,0v-.77h-.37s0,0,0,0V87h-.42Z"/><path d="M229.34,80.52h.42v0a2.81,2.81,0,0,1,0,.29s0,0,.05,0h.33s0,0,0,0v.37h-.38s0,0,0,0v.05c0,1.86,0,3.73,0,5.6,0,0,0,0,.06,0h.32s0,0,0,0v.33s0,0,0,0h-.33s-.05,0-.05,0,0,.2,0,.3h-.42Z"/><path d="M231.41,82.57H231v-.38s0,0,0,0h.39Z"/><path d="M231.83,83h.39s0,0,0,0v.37l0,0h-.39V83Z"/><path d="M231.83,83h-.39a0,0,0,0,1,0,0v-.38h.28s.1,0,.12,0,0,.08,0,.12Z"/><path d="M230.8,81.74H231s0,0,0,0v.35a0,0,0,0,1,0,0h-.35s0,0,0,0v-.35s0,0,0,0Z"/><path d="M232.66,83.82h-.38s0,0,0,0v-.34s0,0,0,0h.38Z"/><path d="M233.08,84.24h.41s0,0,0,0,0,.23,0,.34,0,0,0,0h-.34s0,0,0,0Z"/><path d="M230.58,81.33v.4h-.41v-.4Z"/><path d="M233.08,83.82v.41h-.41v-.41Z"/><path d="M230.58,86.64v.41h-.41v-.41Z"/><polygon class="cls-2" points="233.91 85 230.08 81.24 229.63 81.28 229.61 87.24 230.13 87.1 231.19 86.04 231.72 86.49 231.72 86.92 231.97 87.18 232.31 87.98 232.72 88.73 233.39 88.71 233.62 88.54 233.53 87.88 233.32 87.71 232.96 86.72 232.38 85.72 232.63 85.13 233.77 85.13 233.91 85"/><path d="M231.41,86.24h-.36s-.05,0-.05,0v.31s0,0,0,0h-.34s0,0,0,0,0-.23,0-.35,0,0,0,0H231v-.75s0,0,0,0h.37v.06c0,.23,0,.47,0,.7,0,0,0,0,.05,0h.37V87h.42v.8h.38s.05,0,.05,0c0,.24,0,.48,0,.72v0h.76s0,0,0-.05v-.72s0,0,0,0h-.37V87h-.41v-.81h-.4V85s0,0,0,0h1.2v-.35h.35c.07,0,.06,0,.06.06V85h.48v.06c0,.1,0,.21,0,.31s0,.06,0,0h-1.6c-.06,0-.06,0-.06.07v.67s0,0,0,0H233s.06,0,.06.05c0,.24,0,.47,0,.71v0h.41v.82h.41v.81h-.42v.42h-.81v-.38s0,0,0,0h-.34s0,0,0,0v-.77h-.37s0,0,0,0V87h-.42Z"/><path d="M229.34,80.52h.42v0a2.81,2.81,0,0,1,0,.29s0,0,.05,0h.33s0,0,0,0v.37h-.38s0,0,0,0v.05c0,1.86,0,3.73,0,5.6,0,0,0,0,.06,0h.32s0,0,0,0v.33s0,0,0,0h-.33s-.05,0-.05,0,0,.2,0,.3h-.42Z"/><path d="M231.41,82.57H231v-.38s0,0,0,0h.39Z"/><path d="M231.83,83h.39s0,0,0,0v.37l0,0h-.39V83Z"/><path d="M231.83,83h-.39a0,0,0,0,1,0,0v-.38h.28s.1,0,.12,0,0,.08,0,.12Z"/><path d="M230.8,81.74H231s0,0,0,0v.35a0,0,0,0,1,0,0h-.35s0,0,0,0v-.35s0,0,0,0Z"/><path d="M232.66,83.82h-.38s0,0,0,0v-.34s0,0,0,0h.38Z"/><path d="M233.08,84.24h.41s0,0,0,0,0,.23,0,.34,0,0,0,0h-.34s0,0,0,0Z"/><path d="M230.58,81.33v.4h-.41v-.4Z"/><path d="M233.08,83.82v.41h-.41v-.41Z"/><path d="M230.58,86.64v.41h-.41v-.41Z"/><polygon class="cls-2" points="233.91 85 230.08 81.24 229.63 81.28 229.61 87.24 230.13 87.1 231.19 86.04 231.72 86.49 231.72 86.92 231.97 87.18 232.31 87.98 232.72 88.73 233.39 88.71 233.62 88.54 233.53 87.88 233.32 87.71 232.96 86.72 232.38 85.72 232.63 85.13 233.77 85.13 233.91 85"/><path d="M231.41,86.24h-.36s-.05,0-.05,0v.31s0,0,0,0h-.34s0,0,0,0,0-.23,0-.35,0,0,0,0H231v-.75s0,0,0,0h.37v.06c0,.23,0,.47,0,.7,0,0,0,0,.05,0h.37V87h.42v.8h.38s.05,0,.05,0c0,.24,0,.48,0,.72v0h.76s0,0,0-.05v-.72s0,0,0,0h-.37V87h-.41v-.81h-.4V85s0,0,0,0h1.2v-.35h.35c.07,0,.06,0,.06.06V85h.48v.06c0,.1,0,.21,0,.31s0,.06,0,0h-1.6c-.06,0-.06,0-.06.07v.67s0,0,0,0H233s.06,0,.06.05c0,.24,0,.47,0,.71v0h.41v.82h.41v.81h-.42v.42h-.81v-.38s0,0,0,0h-.34s0,0,0,0v-.77h-.37s0,0,0,0V87h-.42Z"/><path d="M229.34,80.52h.42v0a2.81,2.81,0,0,1,0,.29s0,0,.05,0h.33s0,0,0,0v.37h-.38s0,0,0,0v.05c0,1.86,0,3.73,0,5.6,0,0,0,0,.06,0h.32s0,0,0,0v.33s0,0,0,0h-.33s-.05,0-.05,0,0,.2,0,.3h-.42Z"/><path d="M231.41,82.57H231v-.38s0,0,0,0h.39Z"/><path d="M231.83,83h.39s0,0,0,0v.37l0,0h-.39V83Z"/><path d="M231.83,83h-.39a0,0,0,0,1,0,0v-.38h.28s.1,0,.12,0,0,.08,0,.12Z"/><path d="M230.8,81.74H231s0,0,0,0v.35a0,0,0,0,1,0,0h-.35s0,0,0,0v-.35s0,0,0,0Z"/><path d="M232.66,83.82h-.38s0,0,0,0v-.34s0,0,0,0h.38Z"/><path d="M233.08,84.24h.41s0,0,0,0,0,.23,0,.34,0,0,0,0h-.34s0,0,0,0Z"/><path d="M230.58,81.33v.4h-.41v-.4Z"/><path d="M233.08,83.82v.41h-.41v-.41Z"/><path d="M230.58,86.64v.41h-.41v-.41Z"/><polygon class="cls-2" points="233.91 85 230.08 81.24 229.63 81.28 229.61 87.24 230.13 87.1 231.19 86.04 231.72 86.49 231.72 86.92 231.97 87.18 232.31 87.98 232.72 88.73 233.39 88.71 233.62 88.54 233.53 87.88 233.32 87.71 232.96 86.72 232.38 85.72 232.63 85.13 233.77 85.13 233.91 85"/><path d="M231.41,86.24h-.36s-.05,0-.05,0v.31s0,0,0,0h-.34s0,0,0,0,0-.23,0-.35,0,0,0,0H231v-.75s0,0,0,0h.37v.06c0,.23,0,.47,0,.7,0,0,0,0,.05,0h.37V87h.42v.8h.38s.05,0,.05,0c0,.24,0,.48,0,.72v0h.76s0,0,0-.05v-.72s0,0,0,0h-.37V87h-.41v-.81h-.4V85s0,0,0,0h1.2v-.35h.35c.07,0,.06,0,.06.06V85h.48v.06c0,.1,0,.21,0,.31s0,.06,0,0h-1.6c-.06,0-.06,0-.06.07v.67s0,0,0,0H233s.06,0,.06.05c0,.24,0,.47,0,.71v0h.41v.82h.41v.81h-.42v.42h-.81v-.38s0,0,0,0h-.34s0,0,0,0v-.77h-.37s0,0,0,0V87h-.42Z"/><path d="M229.34,80.52h.42v0a2.81,2.81,0,0,1,0,.29s0,0,.05,0h.33s0,0,0,0v.37h-.38s0,0,0,0v.05c0,1.86,0,3.73,0,5.6,0,0,0,0,.06,0h.32s0,0,0,0v.33s0,0,0,0h-.33s-.05,0-.05,0,0,.2,0,.3h-.42Z"/><path d="M231.41,82.57H231v-.38s0,0,0,0h.39Z"/><path d="M231.83,83h.39s0,0,0,0v.37l0,0h-.39V83Z"/><path d="M231.83,83h-.39a0,0,0,0,1,0,0v-.38h.28s.1,0,.12,0,0,.08,0,.12Z"/><path d="M230.8,81.74H231s0,0,0,0v.35a0,0,0,0,1,0,0h-.35s0,0,0,0v-.35s0,0,0,0Z"/><path d="M232.66,83.82h-.38s0,0,0,0v-.34s0,0,0,0h.38Z"/><path d="M233.08,84.24h.41s0,0,0,0,0,.23,0,.34,0,0,0,0h-.34s0,0,0,0Z"/><path d="M230.58,81.33v.4h-.41v-.4Z"/><path d="M233.08,83.82v.41h-.41v-.41Z"/><path d="M230.58,86.64v.41h-.41v-.41Z"/><polygon class="cls-2" points="233.91 85 230.08 81.24 229.63 81.28 229.61 87.24 230.13 87.1 231.19 86.04 231.72 86.49 231.72 86.92 231.97 87.18 232.31 87.98 232.72 88.73 233.39 88.71 233.62 88.54 233.53 87.88 233.32 87.71 232.96 86.72 232.38 85.72 232.63 85.13 233.77 85.13 233.91 85"/><path d="M231.41,86.24h-.36s-.05,0-.05,0v.31s0,0,0,0h-.34s0,0,0,0,0-.23,0-.35,0,0,0,0H231v-.75s0,0,0,0h.37v.06c0,.23,0,.47,0,.7,0,0,0,0,.05,0h.37V87h.42v.8h.38s.05,0,.05,0c0,.24,0,.48,0,.72v0h.76s0,0,0-.05v-.72s0,0,0,0h-.37V87h-.41v-.81h-.4V85s0,0,0,0h1.2v-.35h.35c.07,0,.06,0,.06.06V85h.48v.06c0,.1,0,.21,0,.31s0,.06,0,0h-1.6c-.06,0-.06,0-.06.07v.67s0,0,0,0H233s.06,0,.06.05c0,.24,0,.47,0,.71v0h.41v.82h.41v.81h-.42v.42h-.81v-.38s0,0,0,0h-.34s0,0,0,0v-.77h-.37s0,0,0,0V87h-.42Z"/><path d="M229.34,80.52h.42v0a2.81,2.81,0,0,1,0,.29s0,0,.05,0h.33s0,0,0,0v.37h-.38s0,0,0,0v.05c0,1.86,0,3.73,0,5.6,0,0,0,0,.06,0h.32s0,0,0,0v.33s0,0,0,0h-.33s-.05,0-.05,0,0,.2,0,.3h-.42Z"/><path d="M231.41,82.57H231v-.38s0,0,0,0h.39Z"/><path d="M231.83,83h.39s0,0,0,0v.37l0,0h-.39V83Z"/><path d="M231.83,83h-.39a0,0,0,0,1,0,0v-.38h.28s.1,0,.12,0,0,.08,0,.12Z"/><path d="M230.8,81.74H231s0,0,0,0v.35a0,0,0,0,1,0,0h-.35s0,0,0,0v-.35s0,0,0,0Z"/><path d="M232.66,83.82h-.38s0,0,0,0v-.34s0,0,0,0h.38Z"/><path d="M233.08,84.24h.41s0,0,0,0,0,.23,0,.34,0,0,0,0h-.34s0,0,0,0Z"/><path d="M230.58,81.33v.4h-.41v-.4Z"/><path d="M233.08,83.82v.41h-.41v-.41Z"/><path d="M230.58,86.64v.41h-.41v-.41Z"/><polygon class="cls-2" points="233.91 85 230.08 81.24 229.63 81.28 229.61 87.24 230.13 87.1 231.19 86.04 231.72 86.49 231.72 86.92 231.97 87.18 232.31 87.98 232.72 88.73 233.39 88.71 233.62 88.54 233.53 87.88 233.32 87.71 232.96 86.72 232.38 85.72 232.63 85.13 233.77 85.13 233.91 85"/><path d="M231.41,86.24h-.36s-.05,0-.05,0v.31s0,0,0,0h-.34s0,0,0,0,0-.23,0-.35,0,0,0,0H231v-.75s0,0,0,0h.37v.06c0,.23,0,.47,0,.7,0,0,0,0,.05,0h.37V87h.42v.8h.38s.05,0,.05,0c0,.24,0,.48,0,.72v0h.76s0,0,0-.05v-.72s0,0,0,0h-.37V87h-.41v-.81h-.4V85s0,0,0,0h1.2v-.35h.35c.07,0,.06,0,.06.06V85h.48v.06c0,.1,0,.21,0,.31s0,.06,0,0h-1.6c-.06,0-.06,0-.06.07v.67s0,0,0,0H233s.06,0,.06.05c0,.24,0,.47,0,.71v0h.41v.82h.41v.81h-.42v.42h-.81v-.38s0,0,0,0h-.34s0,0,0,0v-.77h-.37s0,0,0,0V87h-.42Z"/><path d="M229.34,80.52h.42v0a2.81,2.81,0,0,1,0,.29s0,0,.05,0h.33s0,0,0,0v.37h-.38s0,0,0,0v.05c0,1.86,0,3.73,0,5.6,0,0,0,0,.06,0h.32s0,0,0,0v.33s0,0,0,0h-.33s-.05,0-.05,0,0,.2,0,.3h-.42Z"/><path d="M231.41,82.57H231v-.38s0,0,0,0h.39Z"/><path d="M231.83,83h.39s0,0,0,0v.37l0,0h-.39V83Z"/><path d="M231.83,83h-.39a0,0,0,0,1,0,0v-.38h.28s.1,0,.12,0,0,.08,0,.12Z"/><path d="M230.8,81.74H231s0,0,0,0v.35a0,0,0,0,1,0,0h-.35s0,0,0,0v-.35s0,0,0,0Z"/><path d="M232.66,83.82h-.38s0,0,0,0v-.34s0,0,0,0h.38Z"/><path d="M233.08,84.24h.41s0,0,0,0,0,.23,0,.34,0,0,0,0h-.34s0,0,0,0Z"/><path d="M230.58,81.33v.4h-.41v-.4Z"/><path d="M233.08,83.82v.41h-.41v-.41Z"/><path d="M230.58,86.64v.41h-.41v-.41Z"/><polygon class="cls-2" points="233.91 85 230.08 81.24 229.63 81.28 229.61 87.24 230.13 87.1 231.19 86.04 231.72 86.49 231.72 86.92 231.97 87.18 232.31 87.98 232.72 88.73 233.39 88.71 233.62 88.54 233.53 87.88 233.32 87.71 232.96 86.72 232.38 85.72 232.63 85.13 233.77 85.13 233.91 85"/><path d="M231.41,86.24h-.36s-.05,0-.05,0v.31s0,0,0,0h-.34s0,0,0,0,0-.23,0-.35,0,0,0,0H231v-.75s0,0,0,0h.37v.06c0,.23,0,.47,0,.7,0,0,0,0,.05,0h.37V87h.42v.8h.38s.05,0,.05,0c0,.24,0,.48,0,.72v0h.76s0,0,0-.05v-.72s0,0,0,0h-.37V87h-.41v-.81h-.4V85s0,0,0,0h1.2v-.35h.35c.07,0,.06,0,.06.06V85h.48v.06c0,.1,0,.21,0,.31s0,.06,0,0h-1.6c-.06,0-.06,0-.06.07v.67s0,0,0,0H233s.06,0,.06.05c0,.24,0,.47,0,.71v0h.41v.82h.41v.81h-.42v.42h-.81v-.38s0,0,0,0h-.34s0,0,0,0v-.77h-.37s0,0,0,0V87h-.42Z"/><path d="M229.34,80.52h.42v0a2.81,2.81,0,0,1,0,.29s0,0,.05,0h.33s0,0,0,0v.37h-.38s0,0,0,0v.05c0,1.86,0,3.73,0,5.6,0,0,0,0,.06,0h.32s0,0,0,0v.33s0,0,0,0h-.33s-.05,0-.05,0,0,.2,0,.3h-.42Z"/><path d="M231.41,82.57H231v-.38s0,0,0,0h.39Z"/><path d="M231.83,83h.39s0,0,0,0v.37l0,0h-.39V83Z"/><path d="M231.83,83h-.39a0,0,0,0,1,0,0v-.38h.28s.1,0,.12,0,0,.08,0,.12Z"/><path d="M230.8,81.74H231s0,0,0,0v.35a0,0,0,0,1,0,0h-.35s0,0,0,0v-.35s0,0,0,0Z"/><path d="M232.66,83.82h-.38s0,0,0,0v-.34s0,0,0,0h.38Z"/><path d="M233.08,84.24h.41s0,0,0,0,0,.23,0,.34,0,0,0,0h-.34s0,0,0,0Z"/><path d="M230.58,81.33v.4h-.41v-.4Z"/><path d="M233.08,83.82v.41h-.41v-.41Z"/><path d="M230.58,86.64v.41h-.41v-.41Z"/><polygon class="cls-2" points="233.91 85 230.08 81.24 229.63 81.28 229.61 87.24 230.13 87.1 231.19 86.04 231.72 86.49 231.72 86.92 231.97 87.18 232.31 87.98 232.72 88.73 233.39 88.71 233.62 88.54 233.53 87.88 233.32 87.71 232.96 86.72 232.38 85.72 232.63 85.13 233.77 85.13 233.91 85"/><path d="M231.41,86.24h-.36s-.05,0-.05,0v.31s0,0,0,0h-.34s0,0,0,0,0-.23,0-.35,0,0,0,0H231v-.75s0,0,0,0h.37v.06c0,.23,0,.47,0,.7,0,0,0,0,.05,0h.37V87h.42v.8h.38s.05,0,.05,0c0,.24,0,.48,0,.72v0h.76s0,0,0-.05v-.72s0,0,0,0h-.37V87h-.41v-.81h-.4V85s0,0,0,0h1.2v-.35h.35c.07,0,.06,0,.06.06V85h.48v.06c0,.1,0,.21,0,.31s0,.06,0,0h-1.6c-.06,0-.06,0-.06.07v.67s0,0,0,0H233s.06,0,.06.05c0,.24,0,.47,0,.71v0h.41v.82h.41v.81h-.42v.42h-.81v-.38s0,0,0,0h-.34s0,0,0,0v-.77h-.37s0,0,0,0V87h-.42Z"/><path d="M229.34,80.52h.42v0a2.81,2.81,0,0,1,0,.29s0,0,.05,0h.33s0,0,0,0v.37h-.38s0,0,0,0v.05c0,1.86,0,3.73,0,5.6,0,0,0,0,.06,0h.32s0,0,0,0v.33s0,0,0,0h-.33s-.05,0-.05,0,0,.2,0,.3h-.42Z"/><path d="M231.41,82.57H231v-.38s0,0,0,0h.39Z"/><path d="M231.83,83h.39s0,0,0,0v.37l0,0h-.39V83Z"/><path d="M231.83,83h-.39a0,0,0,0,1,0,0v-.38h.28s.1,0,.12,0,0,.08,0,.12Z"/><path d="M230.8,81.74H231s0,0,0,0v.35a0,0,0,0,1,0,0h-.35s0,0,0,0v-.35s0,0,0,0Z"/><path d="M232.66,83.82h-.38s0,0,0,0v-.34s0,0,0,0h.38Z"/><path d="M233.08,84.24h.41s0,0,0,0,0,.23,0,.34,0,0,0,0h-.34s0,0,0,0Z"/><path d="M230.58,81.33v.4h-.41v-.4Z"/><path d="M233.08,83.82v.41h-.41v-.41Z"/><path d="M230.58,86.64v.41h-.41v-.41Z"/><polygon class="cls-2" points="233.91 85 230.08 81.24 229.63 81.28 229.61 87.24 230.13 87.1 231.19 86.04 231.72 86.49 231.72 86.92 231.97 87.18 232.31 87.98 232.72 88.73 233.39 88.71 233.62 88.54 233.53 87.88 233.32 87.71 232.96 86.72 232.38 85.72 232.63 85.13 233.77 85.13 233.91 85"/><path d="M231.41,86.24h-.36s-.05,0-.05,0v.31s0,0,0,0h-.34s0,0,0,0,0-.23,0-.35,0,0,0,0H231v-.75s0,0,0,0h.37v.06c0,.23,0,.47,0,.7,0,0,0,0,.05,0h.37V87h.42v.8h.38s.05,0,.05,0c0,.24,0,.48,0,.72v0h.76s0,0,0-.05v-.72s0,0,0,0h-.37V87h-.41v-.81h-.4V85s0,0,0,0h1.2v-.35h.35c.07,0,.06,0,.06.06V85h.48v.06c0,.1,0,.21,0,.31s0,.06,0,0h-1.6c-.06,0-.06,0-.06.07v.67s0,0,0,0H233s.06,0,.06.05c0,.24,0,.47,0,.71v0h.41v.82h.41v.81h-.42v.42h-.81v-.38s0,0,0,0h-.34s0,0,0,0v-.77h-.37s0,0,0,0V87h-.42Z"/><path d="M229.34,80.52h.42v0a2.81,2.81,0,0,1,0,.29s0,0,.05,0h.33s0,0,0,0v.37h-.38s0,0,0,0v.05c0,1.86,0,3.73,0,5.6,0,0,0,0,.06,0h.32s0,0,0,0v.33s0,0,0,0h-.33s-.05,0-.05,0,0,.2,0,.3h-.42Z"/><path d="M231.41,82.57H231v-.38s0,0,0,0h.39Z"/><path d="M231.83,83h.39s0,0,0,0v.37l0,0h-.39V83Z"/><path d="M231.83,83h-.39a0,0,0,0,1,0,0v-.38h.28s.1,0,.12,0,0,.08,0,.12Z"/><path d="M230.8,81.74H231s0,0,0,0v.35a0,0,0,0,1,0,0h-.35s0,0,0,0v-.35s0,0,0,0Z"/><path d="M232.66,83.82h-.38s0,0,0,0v-.34s0,0,0,0h.38Z"/><path d="M233.08,84.24h.41s0,0,0,0,0,.23,0,.34,0,0,0,0h-.34s0,0,0,0Z"/><path d="M230.58,81.33v.4h-.41v-.4Z"/><path d="M233.08,83.82v.41h-.41v-.41Z"/><path d="M230.58,86.64v.41h-.41v-.41Z"/><rect class="cls-3" x="0.08" y="91.4" width="88.96" height="24.9"/><path d="M56.71,105.42v-1h.53v-1h-.53v-1h-.52v-.53H54.1V93.4h2.09v8.36h1.05v-.52h.52v-.52h1.05v-.53h1v-.52h1v-.52h.52v-.53h1V98.1H64v1.05h.53v.52H64v.52H63v.53H61.94v.52h-.52v.52H60.37v.53h-1v.52h-1v.52h-.52v1h1.05v.52h.52v.52h1v.52h1.05v.53h1V107H63v.52h1V108h.53v.53H64v1H62.46v-.53h-.52v-.52h-1V108h-1v-.52h-1V107h-.53v-.52h-1v-.53H56.19v8.37H54.1v-8.37H53.05v.53h-.52V107H51.48v.52h-1V108h-1v.53h-.52v.52h-1v.53H46.25v-1h-.52V108h.52v-.52h1V107h.52v-.52h1v-.53h1.05v-.52h.52v-.52h1v-.52h1.05v-.53h.52v.53h.53v.52h.52v.52Zm-2.61-3.13h-.52v1H52v-.52H51v-.52h-1v-.53h-.53v-.52h-1v-.52H47.3v-.53h-1v-.52h-.52v-.52h.52V98.1h1.57v.52h1v.53h.52v.52h1v.52h1v.53h1.05v.52h.52v.52H54.1Z"/><path d="M35.55,105.42v-1h.52v-1h-.52v-1H35v-.53H32.93V93.4H35v8.36h1v-.52h.53v-.52h1v-.53h1v-.52h1v-.52h.52v-.53h1V98.1h1.57v1.05h.52v.52h-.52v.52h-1v.53h-1v.52h-.53v.52h-1v.53H38.16v.52h-1v.52H36.6v1h1v.52h.52v.52h1.05v.52h1v.53h1V107h.52v.52h1V108h.52v.53h-.52v1H41.3v-.53h-.52v-.52H39.73V108h-1v-.52h-1V107h-.52v-.52h-1v-.53H35v8.37H32.93v-8.37h-1v.53h-.52V107H30.32v.52H29.27V108h-1v.53h-.52v.52H26.66v.53H25.09v-1h-.52V108h.52v-.52h1.05V107h.52v-.52h1.05v-.53h1v-.52h.52v-.52h1.05v-.52h1.05v-.53h.52v.53h.52v.52h.52v.52Zm-2.62-3.13h-.52v1H30.84v-.52h-1v-.52H28.75v-.53h-.52v-.52H27.18v-.52h-1v-.53H25.09v-.52h-.52v-.52h.52V98.1h1.57v.52h1.05v.53h.52v.52h1v.52h1.05v.53h1.05v.52h.52v.52h1Z"/><path d="M14.79,105.42v-1h.52v-1h-.52v-1h-.53v-.53H12.17V93.4h2.09v8.36h1.05v-.52h.52v-.52h1v-.53h1.05v-.52h1v-.52h.52v-.53h1.05V98.1h1.57v1.05h.52v.52h-.52v.52H21.06v.53H20v.52h-.53v.52h-1v.53H17.4v.52h-1v.52h-.53v1h1v.52h.52v.52h1.05v.52h1v.53h1.05V107h.52v.52h1.05V108h.52v.53h-.52v1H20.54v-.53H20v-.52H19V108h-1v-.52H16.88V107h-.52v-.52h-1v-.53H14.26v8.37H12.17v-8.37h-1v.53H10.6V107h-1v.52H8.51V108h-1v.53H7v.52h-1v.53H4.33v-1H3.81V108h.52v-.52h1V107H5.9v-.52H7v-.53H8v-.52h.52v-.52H9.56v-.52h1v-.53h.53v.53h.52v.52h.52v.52Zm-2.62-3.13h-.52v1H10.08v-.52H9v-.52H8v-.53H7.47v-.52h-1v-.52h-1v-.53h-1v-.52H3.81v-.52h.52V98.1H5.9v.52H7v.53h.52v.52h1v.52H9.56v.53h1v.52h.53v.52h1Z"/><path d="M77.54,105.42v-1h.53v-1h-.53v-1H77v-.53H74.93V93.4H77v8.36h1v-.52h.52v-.52h1v-.53h1.05v-.52h1v-.52h.52v-.53h1V98.1h1.57v1.05h.52v.52h-.52v.52h-1v.53h-1v.52h-.52v.52h-1v.53h-1v.52h-1v.52h-.52v1h1v.52h.53v.52h1v.52h1v.53h1V107h.53v.52h1V108h.52v.53h-.52v1H83.29v-.53h-.52v-.52h-1V108h-1v-.52H79.63V107h-.52v-.52h-1v-.53H77v8.37H74.93v-8.37H73.88v.53h-.52V107h-1v.52h-1V108h-1v.53H69.7v.52h-1v.53H67.08v-1h-.52V108h.52v-.52h1V107h.52v-.52h1v-.53h1v-.52h.52v-.52h1v-.52h1v-.53h.52v.53h.52v.52h.53v.52Zm-2.61-3.13H74.4v1H72.84v-.52h-1v-.52h-1v-.53h-.53v-.52h-1v-.52H68.13v-.53h-1v-.52h-.52v-.52h.52V98.1h1.57v.52h1v.53h.52v.52h1v.52h1v.53h1v.52h.52v.52h1.05Z"/><rect class="cls-3" x="186.52" y="91.4" width="88.96" height="24.9"/><path d="M243.16,105.42v-1h.52v-1h-.52v-1h-.53v-.53h-2.09V93.4h2.09v8.36h1.05v-.52h.52v-.52h1.05v-.53h1v-.52h1.05v-.52h.52v-.53h1V98.1h1.57v1.05H251v.52h-.52v.52h-1v.53h-1v.52h-.53v.52h-1v.53h-1v.52h-1v.52h-.53v1h1.05v.52h.52v.52h1v.52h1v.53h1V107h.52v.52h1V108H251v.53h-.52v1h-1.57v-.53h-.52v-.52h-1V108h-1.05v-.52h-1V107h-.52v-.52h-1v-.53h-1.05v8.37h-2.09v-8.37h-1v.53H239V107h-1v.52h-1.05V108h-1v.53h-.53v.52h-1v.53H232.7v-1h-.52V108h.52v-.52h1V107h.53v-.52h1v-.53h1.05v-.52h.52v-.52h1.05v-.52h1v-.53h.53v.53H240v.52h.52v.52Zm-2.62-3.13H240v1h-1.57v-.52h-1v-.52h-1v-.53h-.52v-.52h-1.05v-.52h-1v-.53h-1v-.52h-.52v-.52h.52V98.1h1.57v.52h1v.53h.53v.52h1v.52h1.05v.53h1v.52h.53v.52h1Z"/><path d="M222,105.42v-1h.53v-1H222v-1h-.52v-.53h-2.09V93.4h2.09v8.36h1.05v-.52H223v-.52h1v-.53h1v-.52h1.05v-.52h.52v-.53h1V98.1h1.57v1.05h.52v.52h-.52v.52h-1v.53h-1.05v.52h-.52v.52h-1v.53h-1v.52h-1.05v.52H223v1h1v.52h.53v.52h1v.52h1v.53h1V107h.53v.52h1V108h.52v.53h-.52v1h-1.57v-.53h-.52v-.52h-1V108h-1.05v-.52h-1V107h-.52v-.52h-1v-.53h-1.05v8.37h-2.09v-8.37h-1v.53h-.52V107h-1.05v.52h-1V108h-1.05v.53h-.52v.52H213.1v.53h-1.57v-1H211V108h.52v-.52h1.05V107h.52v-.52h1.05v-.53h1v-.52h.52v-.52h1v-.52h1.05v-.53h.52v.53h.52v.52h.53v.52Zm-2.61-3.13h-.53v1h-1.56v-.52h-1v-.52h-1v-.53h-.53v-.52h-1v-.52h-1v-.53h-1.05v-.52H211v-.52h.52V98.1h1.57v.52h1.05v.53h.52v.52h1.05v.52h1v.53h1.05v.52h.52v.52h1Z"/><path d="M201.23,105.42v-1h.53v-1h-.53v-1h-.52v-.53h-2.09V93.4h2.09v8.36h1v-.52h.52v-.52h1v-.53h1.05v-.52h1v-.52h.53v-.53h1V98.1h1.57v1.05h.52v.52h-.52v.52h-1v.53h-1v.52h-.52v.52h-1.05v.53h-1v.52h-1v.52h-.52v1h1v.52h.53v.52h1v.52h1.05v.53h1V107h.53v.52h1V108h.52v.53h-.52v1H207v-.53h-.52v-.52h-1.05V108h-1v-.52h-1.05V107h-.52v-.52h-1v-.53h-1v8.37h-2.09v-8.37h-1.05v.53h-.52V107H196v.52h-1V108h-1.05v.53h-.52v.52h-1v.53h-1.57v-1h-.52V108h.52v-.52h1V107h.52v-.52h1v-.53h1v-.52H195v-.52h1v-.52h1.05v-.53h.52v.53h.52v.52h.53v.52Zm-2.61-3.13h-.53v1h-1.56v-.52h-1.05v-.52h-1v-.53h-.52v-.52h-1v-.52h-1.05v-.53h-1v-.52h-.52v-.52h.52V98.1h1.57v.52h1v.53h.52v.52H195v.52h1v.53h1.05v.52h.52v.52h1.05Z"/><path d="M264,105.42v-1h.53v-1H264v-1h-.52v-.53h-2.09V93.4h2.09v8.36h1.05v-.52H265v-.52h1.05v-.53h1v-.52h1.05v-.52h.52v-.53h1.05V98.1h1.57v1.05h.52v.52h-.52v.52h-1.05v.53h-1.05v.52h-.52v.52h-1v.53h-1v.52h-1v.52H265v1h1.05v.52h.52v.52h1v.52h1v.53h1.05V107h.52v.52h1.05V108h.52v.53h-.52v1h-1.57v-.53h-.53v-.52h-1V108h-1.05v-.52h-1V107h-.52v-.52h-1.05v-.53h-1.05v8.37h-2.09v-8.37h-1v.53h-.53V107h-1v.52h-1.05V108h-1v.53h-.53v.52h-1v.53h-1.57v-1H253V108h.53v-.52h1V107h.53v-.52h1v-.53h1.05v-.52h.52v-.52h1.05v-.52h1v-.53h.53v.53h.52v.52h.52v.52Zm-2.61-3.13h-.52v1h-1.57v-.52h-1v-.52h-1v-.53h-.52v-.52h-1.05v-.52h-1.05v-.53h-1v-.52H253v-.52h.53V98.1h1.57v.52h1v.53h.53v.52h1v.52h1.05v.53h1v.52h.53v.52h1Z"/><rect class="cls-3" x="89.06" y="91.4" width="97.39" height="24.91"/><path d="M96.15,96.16v6.12h2.08v1.22H92.84v-1.22h2.08V96.16H92.84V94.94h5.39v1.22Z"/><path d="M105.39,94.94v8.56h-1.78L101.23,97v6.51H100V94.94h1.78l2.38,6.51V94.94Z"/><path d="M112.55,96.16h-2.08v7.34h-1.22V96.16h-2.08V94.94h5.38Z"/><path d="M115.55,96.16V98.4h3.67v1.23h-3.67v2.65h4.16v1.22h-5.38V94.94h5.38v1.22Z"/><path d="M125.27,100l1.6,3.51h-1.34L124,100.08h-1.26v3.42h-1.22V94.94h3.18a2.19,2.19,0,0,1,2.2,2.2v.74A2.18,2.18,0,0,1,125.27,100Zm.38-2.85a1,1,0,0,0-1-1h-2v2.69h2a1,1,0,0,0,1-1Z"/><path d="M134,94.94v8.56h-1.78L129.88,97v6.51h-1.23V94.94h1.78l2.38,6.51V94.94Z"/><path d="M141.2,100.69v2.81H140v-2H137v2h-1.23v-2.81l2.08-5.75h1.23Zm-3.94-.39h2.49l-1.23-3.43h0Z"/><path d="M148.36,96.16h-2.08v7.34h-1.22V96.16H143V94.94h5.38Z"/><path d="M153.44,96.16v6.12h2.08v1.22h-5.38v-1.22h2.08V96.16h-2.08V94.94h5.38v1.22Z"/><path d="M159.5,103.5a2.22,2.22,0,0,1-2.2-2.21V97.14a2.2,2.2,0,0,1,2.2-2.2h1a2.19,2.19,0,0,1,2.2,2.2v4.15a2.2,2.2,0,0,1-2.2,2.21Zm2-2.21V97.14a1,1,0,0,0-1-1h-1a1,1,0,0,0-1,1v4.15a1,1,0,0,0,1,1h1A1,1,0,0,0,161.46,101.29Z"/><path d="M169.85,94.94v8.56h-1.78L165.69,97v6.51h-1.23V94.94h1.78l2.38,6.51V94.94Z"/><path d="M177,100.69v2.81h-1.23v-2h-2.93v2h-1.23v-2.81l2.08-5.75h1.23Zm-3.94-.39h2.49l-1.23-3.43h0Z"/><path d="M184.17,102.28v1.22h-5.39V94.94H180v7.34Z"/><path d="M96.33,111.78v.9H92.9v-5.22h.9v4.32Z"/><path d="M100.06,109.28v-.41a.52.52,0,0,0-.52-.52h-.6a.52.52,0,0,0-.52.52v2.38a.52.52,0,0,0,.52.52h.6a.52.52,0,0,0,.52-.52v-.51h-1v-.89H101v1.4a1.43,1.43,0,0,1-1.41,1.43h-.6a1.43,1.43,0,0,1-1.42-1.43v-2.38a1.42,1.42,0,0,1,1.42-1.41h.6a1.4,1.4,0,0,1,1.41,1.41v.41Z"/><path d="M105.57,111v.26a1.42,1.42,0,0,1-1.42,1.42h-2v-5.22H104a1.4,1.4,0,0,1,1.41,1.41v.19a1.43,1.43,0,0,1-.31.89A1.43,1.43,0,0,1,105.57,111ZM103,108.35v1.23h1a.52.52,0,0,0,.52-.52v-.19a.52.52,0,0,0-.52-.52Zm1.64,2.65a.51.51,0,0,0-.53-.52H103v1.3h1.11a.52.52,0,0,0,.53-.52Z"/><path d="M110.19,108.35h-1.27v4.33H108v-4.33h-1.27v-.89h3.43Z"/><path d="M114.24,112.39l.57.93-.78.44-.67-1.08h-.56a1.43,1.43,0,0,1-1.42-1.43v-2.38a1.42,1.42,0,0,1,1.42-1.41h.59a1.4,1.4,0,0,1,1.42,1.41v2.38A1.42,1.42,0,0,1,114.24,112.39Zm-1.44-.62h.59a.52.52,0,0,0,.52-.52v-2.38a.51.51,0,0,0-.52-.52h-.59a.52.52,0,0,0-.53.52v2.38A.52.52,0,0,0,112.8,111.77Z"/><path d="M119.13,111.13h-1v1h-.89v-1h-1v-.89h1v-1h.89v1h1Z"/><path d="M126.13,108.35v1.4h2.24v.9h-2.24v2h-.89v-5.22h3.43v.89Z"/><path d="M132,108.35v3.43h1.27v.9h-3.43v-.9h1.26v-3.43h-1.26v-.89h3.43v.89Z"/><path d="M137.91,111.78v.9h-3.43v-5.22h.89v4.32Z"/><path d="M142.53,107.46v5.22h-.9V109.5l-.57,1.22h-.49L140,109.5v3.18h-.89v-5.22H140l.84,1.84.85-1.84Z"/><path d="M149.23,108.35v1.4h2.24v.9h-2.24v2h-.9v-5.22h3.43v.89Z"/><path d="M153.85,108.35v1.14h2.23v.9h-2.23v1.39h2.53v.9H153v-5.22h3.43v.89Z"/><path d="M158.47,111v.26a.56.56,0,0,0,.56.57h.5a.52.52,0,0,0,.58-.49c0-.94-2.46-1.05-2.46-2.52a1.33,1.33,0,0,1,1.46-1.31h.35a1.46,1.46,0,0,1,1.47,1.46v.19H160v-.19a.57.57,0,0,0-.57-.57h-.35c-.37,0-.57.16-.57.42,0,.65,2.46.94,2.46,2.52a1.41,1.41,0,0,1-1.47,1.39H159a1.47,1.47,0,0,1-1.46-1.47V111Z"/><path d="M165.62,108.35h-1.27v4.33h-.89v-4.33h-1.27v-.89h3.43Z"/><path d="M169,108.35v3.43h1.27v.9h-3.43v-.9h1.27v-3.43h-1.27v-.89h3.43v.89Z"/><path d="M174.86,107.46v1.67l-1.29,3.55h-.85l-1.29-3.55v-1.67h.89V109l.83,2.26L174,109v-1.52Z"/><path d="M179.48,111v1.69h-.9v-1.06h-1.64v1.06h-.89V111l1.29-3.53h.85Zm-2.38-.27h1.33l-.67-1.82Z"/><path d="M184.1,111.78v.9h-3.43v-5.22h.89v4.32Z"/><rect class="cls-1" x="240.22" y="24.98" width="35.29" height="66.22"/><path d="M255.62,42.72v2.46H244.77V27.92h2.46v14.8Z"/><path d="M267.59,33.71V32.36a2,2,0,0,0-2-2h-2a2,2,0,0,0-2,2v8.36a2,2,0,0,0,2,2h2a2,2,0,0,0,2-2V38.35h-3.7V35.89h6.16v4.83a4.45,4.45,0,0,1-4.44,4.46h-2a4.47,4.47,0,0,1-4.44-4.46V32.36a4.44,4.44,0,0,1,4.44-4.44h2a4.42,4.42,0,0,1,4.44,4.44v1.35Z"/><path d="M255.62,59.91v1a4.42,4.42,0,0,1-4.44,4.44h-6.41V48.07h5.91a4.42,4.42,0,0,1,4.44,4.44v1a4.31,4.31,0,0,1-1.13,3A4.48,4.48,0,0,1,255.62,59.91Zm-8.39-9.37v4.93h3.45a2,2,0,0,0,2-2v-1a2,2,0,0,0-2-2Zm5.92,9.37a1.94,1.94,0,0,0-2-2h-4v4.93h4a1.94,1.94,0,0,0,2-2Z"/><path d="M270.05,50.54h-4.19v14.8h-2.47V50.54H259.2V48.07h10.85Z"/><path d="M253.84,84.61l1.78,2.91-2.17,1.21-2-3.23H249.2A4.47,4.47,0,0,1,244.77,81V72.67a4.43,4.43,0,0,1,4.43-4.44h2a4.42,4.42,0,0,1,4.44,4.44V81A4.46,4.46,0,0,1,253.84,84.61ZM249.2,83h2a2,2,0,0,0,2-2V72.67a1.94,1.94,0,0,0-2-2h-2a2,2,0,0,0-2,2V81A2,2,0,0,0,249.2,83Z"/><path d="M269.07,80.14h-3.21v3.21h-2.47V80.14h-3.2V77.68h3.2V74.47h2.47v3.21h3.21Z"/><rect class="cls-1" x="0.27" y="24.98" width="35.29" height="66.42"/><path d="M15.66,42.72v2.46H4.81V27.92H7.28v14.8Z"/><path d="M27.63,33.71V32.36a2,2,0,0,0-2-2h-2a2,2,0,0,0-2,2v8.36a2,2,0,0,0,2,2h2a2,2,0,0,0,2-2V38.35h-3.7V35.89H30.1v4.83a4.45,4.45,0,0,1-4.44,4.46h-2a4.46,4.46,0,0,1-4.43-4.46V32.36a4.43,4.43,0,0,1,4.43-4.44h2a4.42,4.42,0,0,1,4.44,4.44v1.35Z"/><path d="M15.66,59.91v1a4.42,4.42,0,0,1-4.44,4.44H4.81V48.07h5.92a4.42,4.42,0,0,1,4.44,4.44v1a4.32,4.32,0,0,1-1.14,3A4.44,4.44,0,0,1,15.66,59.91ZM7.28,50.54v4.93h3.45a1.94,1.94,0,0,0,2-2v-1a1.94,1.94,0,0,0-2-2Zm5.92,9.37a2,2,0,0,0-2-2H7.28v4.93h3.94a2,2,0,0,0,2-2Z"/><path d="M30.1,50.54H25.9v14.8H23.44V50.54H19.25V48.07H30.1Z"/><path d="M13.89,84.61l1.77,2.91-2.17,1.21-2-3.23H9.25A4.48,4.48,0,0,1,4.81,81V72.67a4.44,4.44,0,0,1,4.44-4.44h2a4.42,4.42,0,0,1,4.44,4.44V81A4.48,4.48,0,0,1,13.89,84.61ZM9.25,83h2a2,2,0,0,0,2-2V72.67a2,2,0,0,0-2-2h-2a2,2,0,0,0-2,2V81A2,2,0,0,0,9.25,83Z"/><path d="M29.11,80.14H25.9v3.21H23.44V80.14H20.23V77.68h3.21V74.47H25.9v3.21h3.21Z"/><rect class="cls-3" x="0.3" y="0.08" width="88.96" height="24.9"/><path d="M56.94,14.1v-1h.53V12h-.53V11h-.52v-.52H54.33V2.08h2.09v8.36h1V9.92H58V9.4h1V8.87h1V8.35h1.05V7.83h.52V7.3h1V6.78h1.57v1h.52v.52h-.52v.52h-1V9.4h-1v.52h-.52v.52h-1V11h-1v.53H58.51V12H58v1.05h1v.52h.53v.52h1v.52h1v.53h1v.52h.53v.52h1v.52h.52v.53h-.52v1.05H62.69v-.53h-.52v-.52h-1v-.53H60.08v-.52H59v-.52h-.52v-.52h-1v-.53h-1V23H54.33V14.62h-1v.53h-.52v.52h-1v.52h-1v.52H49.62v.53H49.1v.52H48.05v.53H46.48V17.24H46v-.53h.52v-.52h1.05v-.52h.52v-.52H49.1v-.53h1V14.1h.53v-.52h1v-.52h1v-.53h.52v.53h.52v.52h.53v.52ZM54.33,11H53.8v1H52.24v-.52H51.19V11h-1v-.52h-.52V9.92h-1V9.4h-1V8.87H46.48V8.35H46V7.83h.52v-1h1.57V7.3H49.1v.53h.52v.52h1.05v.52h1V9.4h1v.52h.52v.52h1Z"/><path d="M35.78,14.1v-1h.52V12h-.52V11h-.53v-.52H33.16V2.08h2.09v8.36h1V9.92h.52V9.4h1V8.87h1V8.35H40V7.83h.52V7.3h1.05V6.78H43.1v1h.52v.52H43.1v.52H42.05V9.4H41v.52h-.53v.52h-1V11h-1v.53h-1V12h-.53v1.05h1v.52h.52v.52h1v.52h1v.53h1.05v.52h.52v.52H43.1v.52h.52v.53H43.1v1.05H41.53v-.53H41v-.52H40v-.53H38.91v-.52h-1v-.52h-.52v-.52H36.3v-.53h-1V23H33.16V14.62h-1v.53h-.53v.52h-1v.52H29.5v.52h-1v.53h-.53v.52h-1v.53H25.32V17.24H24.8v-.53h.52v-.52h1v-.52h.53v-.52h1v-.53H29V14.1h.52v-.52h1.05v-.52h1v-.53h.53v.53h.52v.52h.52v.52ZM33.16,11h-.52v1H31.07v-.52H30V11H29v-.52h-.52V9.92H27.41V9.4H26.36V8.87h-1V8.35H24.8V7.83h.52v-1h1.57V7.3h1v.53h.53v.52h1v.52h1.05V9.4h1v.52h.53v.52h1Z"/><path d="M15,14.1v-1h.53V12H15V11h-.52v-.52H12.4V2.08h2.09v8.36h1V9.92h.52V9.4h1.05V8.87h1V8.35H19.2V7.83h.52V7.3h1.05V6.78h1.57v1h.52v.52h-.52v.52H21.29V9.4h-1v.52h-.53v.52h-1V11H17.63v.53h-1V12h-.53v1.05h1.05v.52h.52v.52h1.05v.52h1v.53h1.05v.52h.52v.52h1.05v.52h.52v.53h-.52v1.05H20.77v-.53h-.52v-.52H19.2v-.53H18.15v-.52h-1v-.52h-.52v-.52H15.54v-.53h-1V23H12.4V14.62h-1v.53h-.53v.52h-1v.52h-1v.52h-1v.53H7.17v.52h-1v.53H4.56V17.24H4v-.53h.53v-.52h1v-.52h.53v-.52h1v-.53H8.22V14.1h.52v-.52h1v-.52h1v-.53h.53v.53h.52v.52h.52v.52ZM12.4,11h-.52v1H10.31v-.52H9.26V11h-1v-.52H7.7V9.92h-1V9.4H5.6V8.87h-1V8.35H4V7.83h.53v-1H6.13V7.3h1v.53H7.7v.52h1v.52h1V9.4h1v.52h.53v.52h1Z"/><path d="M77.77,14.1v-1h.52V12h-.52V11h-.52v-.52H75.16V2.08h2.09v8.36h1V9.92h.53V9.4h1V8.87h1V8.35h1V7.83h.53V7.3h1V6.78h1.57v1h.52v.52h-.52v.52H84V9.4H83v.52h-.52v.52h-1V11h-1v.53h-1V12h-.52v1.05h1v.52h.53v.52h1v.52h1v.53h1v.52H84v.52h1v.52h.52v.53h-.52v1.05H83.52v-.53H83v-.52H82v-.53h-1v-.52h-1v-.52h-.52v-.52h-1v-.53h-1V23H75.16V14.62h-1v.53h-.52v.52h-1v.52h-1v.52h-1v.53h-.52v.52H68.88v.53H67.31V17.24h-.52v-.53h.52v-.52h1v-.52h.52v-.52h1.05v-.53h1V14.1h.53v-.52h1v-.52h1v-.53h.52v.53h.52v.52h.53v.52ZM75.16,11h-.53v1H73.06v-.52H72V11H71v-.52h-.52V9.92h-1V9.4h-1V8.87h-1V8.35h-.52V7.83h.52v-1h1.57V7.3h1.05v.53h.52v.52h1v.52h1V9.4h1v.52h.52v.52h1Z"/><rect class="cls-3" x="186.75" y="0.08" width="88.96" height="24.9"/><path d="M243.38,14.1v-1h.53V12h-.53V11h-.52v-.52h-2.09V2.08h2.09v8.36h1V9.92h.52V9.4h1V8.87h1V8.35h1V7.83h.52V7.3h1V6.78h1.57v1h.52v.52h-.52v.52h-1.05V9.4h-1v.52h-.52v.52h-1V11H246v.53h-1V12h-.53v1.05h1v.52H246v.52h1.05v.52h1v.53h1v.52h.52v.52h1.05v.52h.52v.53h-.52v1.05h-1.57v-.53h-.53v-.52h-1v-.53h-1v-.52h-1v-.52H245v-.52h-1.05v-.53h-1V23h-2.09V14.62h-1v.53h-.53v.52h-1v.52h-1v.52h-1v.53h-.53v.52h-1v.53h-1.56V17.24h-.53v-.53h.53v-.52h1v-.52h.52v-.52h1v-.53h1.05V14.1h.52v-.52h1v-.52h1v-.53h.53v.53h.52v.52h.52v.52ZM240.77,11h-.52v1h-1.57v-.52h-1.05V11h-1v-.52h-.52V9.92h-1V9.4H234V8.87h-1V8.35h-.53V7.83h.53v-1h1.56V7.3h1v.53h.53v.52h1v.52h1V9.4h1v.52h.53v.52h1Z"/><path d="M222.22,14.1v-1h.53V12h-.53V11h-.52v-.52h-2.09V2.08h2.09v8.36h1.05V9.92h.52V9.4h1V8.87h1.05V8.35h1V7.83h.53V7.3h1V6.78h1.57v1h.52v.52h-.52v.52h-1V9.4h-1v.52h-.52v.52h-1.05V11h-1v.53h-1.05V12h-.52v1.05h1v.52h.53v.52h1v.52h1.05v.53h1v.52h.52v.52h1v.52h.52v.53h-.52v1.05H228v-.53h-.52v-.52h-1v-.53h-1v-.52h-1.05v-.52h-.52v-.52h-1v-.53H221.7V23h-2.09V14.62h-1.05v.53H218v.52h-1v.52h-1v.52h-1v.53h-.52v.52h-1v.53h-1.57V17.24h-.52v-.53h.52v-.52h1.05v-.52h.52v-.52h1v-.53h1V14.1H216v-.52h1v-.52h1v-.53h.52v.53h.52v.52h.53v.52ZM219.61,11h-.53v1h-1.57v-.52h-1V11h-1.05v-.52h-.52V9.92h-1V9.4h-1.05V8.87h-1.05V8.35h-.52V7.83h.52v-1h1.57V7.3h1v.53h.52v.52h1v.52h1V9.4h1v.52h.52v.52h1.05Z"/><path d="M201.46,14.1v-1H202V12h-.52V11h-.52v-.52h-2.09V2.08h2.09v8.36h1V9.92h.53V9.4h1V8.87h1V8.35h1V7.83h.53V7.3h1V6.78h1.57v1h.52v.52h-.52v.52h-1.05V9.4h-1v.52h-.52v.52h-1V11h-1v.53H203V12h-.52v1.05h1v.52h.53v.52h1v.52h1v.53h1v.52h.52v.52h1.05v.52h.52v.53h-.52v1.05h-1.57v-.53h-.52v-.52h-1.05v-.53h-1v-.52h-1v-.52H203v-.52H202v-.53h-1V23h-2.09V14.62h-1v.53h-.52v.52h-1.05v.52h-1v.52h-1.05v.53h-.52v.52h-1.05v.53H191V17.24h-.52v-.53H191v-.52h1.05v-.52h.52v-.52h1.05v-.53h1V14.1h.53v-.52h1v-.52h1.05v-.53h.52v.53h.52v.52h.53v.52ZM198.85,11h-.53v1h-1.57v-.52h-1V11h-1.05v-.52h-.52V9.92h-1V9.4h-1V8.87H191V8.35h-.52V7.83H191v-1h1.57V7.3h1.05v.53h.52v.52h1.05v.52h1V9.4h1.05v.52h.52v.52h1Z"/><path d="M264.21,14.1v-1h.53V12h-.53V11h-.52v-.52H261.6V2.08h2.09v8.36h1.05V9.92h.52V9.4h1.05V8.87h1V8.35h1V7.83h.52V7.3H270V6.78h1.56v1h.53v.52h-.53v.52h-1V9.4h-1.05v.52h-.52v.52h-1.05V11h-1v.53h-1.05V12h-.52v1.05h1.05v.52h.52v.52h1v.52h1.05v.53H270v.52h.52v.52h1v.52h.53v.53h-.53v1.05H270v-.53h-.53v-.52h-1v-.53h-1v-.52h-1v-.52h-.53v-.52h-1v-.53h-1.05V23H261.6V14.62h-1.05v.53H260v.52h-1v.52h-1.05v.52h-1.05v.53h-.52v.52h-1.05v.53h-1.56V17.24h-.53v-.53h.53v-.52h1v-.52h.52v-.52h1.05v-.53h1.05V14.1h.52v-.52H259v-.52h1v-.53h.52v.53h.53v.52h.52v.52ZM261.6,11h-.52v1h-1.57v-.52h-1.05V11h-1v-.52h-.53V9.92h-1V9.4h-1V8.87h-1V8.35h-.53V7.83h.53v-1h1.56V7.3h1.05v.53h.52v.52h1.05v.52H259V9.4h1v.52h.52v.52h1.05Z"/><rect class="cls-3" x="89.29" y="0.08" width="97.39" height="24.91"/><path d="M96.37,4.84V11h2.08v1.22H93.07V11h2.08V4.84H93.07V3.62h5.38V4.84Z"/><path d="M105.62,3.62v8.56h-1.78l-2.38-6.51v6.51h-1.23V3.62H102l2.38,6.51V3.62Z"/><path d="M112.78,4.84H110.7v7.34h-1.23V4.84h-2.08V3.62h5.39Z"/><path d="M115.78,4.84V7.08h3.67V8.31h-3.67V11h4.16v1.22h-5.38V3.62h5.38V4.84Z"/><path d="M125.5,8.67l1.6,3.51h-1.34L124.2,8.76h-1.26v3.42h-1.22V3.62h3.18a2.19,2.19,0,0,1,2.2,2.2v.74A2.18,2.18,0,0,1,125.5,8.67Zm.38-2.85a1,1,0,0,0-1-1h-2V7.53h2a1,1,0,0,0,1-1Z"/><path d="M134.26,3.62v8.56h-1.77L130.1,5.67v6.51h-1.22V3.62h1.78L133,10.13V3.62Z"/><path d="M141.43,9.37v2.81H140.2v-2h-2.93v2H136V9.37l2.08-5.75h1.23ZM137.49,9H140l-1.23-3.43h0Z"/><path d="M148.59,4.84h-2.08v7.34h-1.23V4.84H143.2V3.62h5.39Z"/><path d="M153.67,4.84V11h2.08v1.22h-5.38V11h2.08V4.84h-2.08V3.62h5.38V4.84Z"/><path d="M159.73,12.18a2.22,2.22,0,0,1-2.2-2.21V5.82a2.2,2.2,0,0,1,2.2-2.2h1a2.19,2.19,0,0,1,2.2,2.2V10a2.21,2.21,0,0,1-2.2,2.21Zm2-2.21V5.82a1,1,0,0,0-1-1h-1a1,1,0,0,0-1,1V10a1,1,0,0,0,1,1h1A1,1,0,0,0,161.69,10Z"/><path d="M170.07,3.62v8.56H168.3l-2.39-6.51v6.51h-1.22V3.62h1.77l2.39,6.51V3.62Z"/><path d="M177.24,9.37v2.81H176v-2h-2.93v2h-1.23V9.37l2.08-5.75h1.23ZM173.3,9h2.49l-1.23-3.43h0Z"/><path d="M184.4,11v1.22H179V3.62h1.23V11Z"/><path d="M96.56,20.46v.9H93.13V16.14H94v4.32Z"/><path d="M100.29,18v-.41a.52.52,0,0,0-.53-.52h-.59a.52.52,0,0,0-.52.52v2.38a.52.52,0,0,0,.52.52h.59a.52.52,0,0,0,.53-.52v-.51h-1v-.89h1.9v1.4a1.43,1.43,0,0,1-1.42,1.43h-.59a1.43,1.43,0,0,1-1.42-1.43V17.55a1.42,1.42,0,0,1,1.42-1.41h.59a1.4,1.4,0,0,1,1.42,1.41V18Z"/><path d="M105.8,19.68v.26a1.42,1.42,0,0,1-1.42,1.42h-2V16.14h1.86a1.4,1.4,0,0,1,1.42,1.41v.19a1.43,1.43,0,0,1-.31.89A1.43,1.43,0,0,1,105.8,19.68ZM103.26,17v1.23h1a.52.52,0,0,0,.53-.52v-.19a.52.52,0,0,0-.53-.52Zm1.64,2.65a.5.5,0,0,0-.52-.52h-1.12v1.3h1.12a.51.51,0,0,0,.52-.52Z"/><path d="M110.42,17h-1.27v4.33h-.89V17H107v-.89h3.43Z"/><path d="M114.47,21.07,115,22l-.78.44-.67-1.08H113a1.43,1.43,0,0,1-1.42-1.43V17.55A1.42,1.42,0,0,1,113,16.14h.59A1.4,1.4,0,0,1,115,17.55v2.38A1.45,1.45,0,0,1,114.47,21.07ZM113,20.45h.59a.52.52,0,0,0,.52-.52V17.55a.51.51,0,0,0-.52-.52H113a.52.52,0,0,0-.53.52v2.38A.52.52,0,0,0,113,20.45Z"/><path d="M119.36,19.81h-1v1h-.89v-1h-1v-.89h1V18h.89v1h1Z"/><path d="M126.36,17v1.4h2.24v.9h-2.24v2h-.89V16.14h3.43V17Z"/><path d="M132.25,17v3.43h1.27v.9h-3.43v-.9h1.26V17h-1.26v-.89h3.43V17Z"/><path d="M138.13,20.46v.9h-3.42V16.14h.89v4.32Z"/><path d="M142.75,16.14v5.22h-.89V18.18l-.57,1.22h-.5l-.57-1.22v3.18h-.9V16.14h.88L141,18l.85-1.84Z"/><path d="M149.46,17v1.4h2.23v.9h-2.23v2h-.9V16.14H152V17Z"/><path d="M154.08,17v1.14h2.23v.9h-2.23v1.39h2.53v.9h-3.43V16.14h3.43V17Z"/><path d="M158.7,19.63v.26a.56.56,0,0,0,.56.57h.5a.52.52,0,0,0,.58-.49c0-.94-2.46-1-2.46-2.52a1.33,1.33,0,0,1,1.46-1.31h.35a1.46,1.46,0,0,1,1.47,1.46v.19h-.9V17.6a.57.57,0,0,0-.57-.57h-.35c-.37,0-.57.16-.57.42,0,.65,2.46.94,2.46,2.52a1.41,1.41,0,0,1-1.47,1.39h-.5a1.47,1.47,0,0,1-1.46-1.47v-.26Z"/><path d="M165.85,17h-1.27v4.33h-.89V17h-1.27v-.89h3.43Z"/><path d="M169.2,17v3.43h1.27v.9H167v-.9h1.27V17H167v-.89h3.43V17Z"/><path d="M175.09,16.14v1.67l-1.29,3.55H173l-1.29-3.55V16.14h.89v1.52l.82,2.26.82-2.26V16.14Z"/><path d="M179.71,19.67v1.69h-.9V20.3h-1.64v1.06h-.89V19.67l1.29-3.53h.85Zm-2.38-.27h1.33L178,17.58Z"/><path d="M184.33,20.46v.9H180.9V16.14h.89v4.32Z"/></g></g></svg>